<?xml version="1.0" standalone="no"?>
<!DOCTYPE svg PUBLIC "-//W3C//DTD SVG 20010904//EN"
 "http://www.w3.org/TR/2001/REC-SVG-20010904/DTD/svg10.dtd">
<svg version="1.0" xmlns="http://www.w3.org/2000/svg"
 width="1040.000000pt" height="480.000000pt" viewBox="0 0 1040.000000 480.000000"
 preserveAspectRatio="xMidYMid meet">
<metadata>
Created by potrace 1.16, written by Peter Selinger 2001-2019
</metadata>
<g transform="translate(0.000000,480.000000) scale(0.100000,-0.100000)"
fill="#000000" stroke="none">
<path d="M0 4634 l0 -166 78 7 c42 3 120 13 172 21 52 8 140 21 195 29 55 9
114 19 130 24 17 5 50 12 75 16 64 9 231 45 243 52 10 6 -114 67 -281 139
l-103 44 -254 0 -255 0 0 -166z"/>
<path d="M3870 4747 c-100 -55 -198 -95 -365 -148 -55 -17 -116 -39 -135 -49
-105 -53 -397 -133 -566 -155 l-52 -7 31 -28 31 -27 42 30 c46 32 76 31 95 -4
10 -19 12 -19 50 15 45 41 66 44 97 16 20 -19 24 -20 44 -5 27 18 72 20 86 3
14 -19 25 -58 15 -58 -5 0 -13 10 -18 23 -14 32 -55 34 -84 3 l-24 -25 -19 24
c-11 14 -27 25 -36 25 -18 0 -65 -39 -80 -67 -9 -15 -13 -13 -37 15 -34 41
-57 40 -92 -3 -32 -40 -39 -42 -47 -17 -9 25 -68 62 -100 62 -40 0 -91 -54
-110 -119 -26 -88 -30 -121 -15 -122 8 0 26 -2 41 -3 15 -1 30 4 33 12 4 10 9
10 26 2 11 -6 35 -10 52 -9 41 3 100 -10 110 -25 4 -6 6 25 5 70 -2 58 1 86
11 98 19 23 31 4 31 -50 0 -23 3 -56 6 -74 6 -25 11 -31 26 -26 11 2 31 1 44
-4 24 -9 24 -9 24 60 0 89 26 151 44 104 3 -9 6 -49 6 -91 0 -64 2 -74 16 -69
9 3 29 6 46 6 l30 0 -7 64 c-4 42 -2 72 5 86 19 36 30 11 30 -73 l0 -82 40 0
40 0 2 80 2 80 3 -70 c4 -65 7 -72 39 -103 40 -37 91 -53 105 -31 25 40 -6 65
-61 49 -26 -7 -30 -6 -30 11 0 28 25 34 72 18 31 -10 44 -10 59 -1 45 29 100
6 121 -51 16 -40 17 -41 17 -12 0 17 -6 57 -14 90 -8 33 -14 77 -15 98 0 24
-5 40 -15 43 -19 8 -20 24 -1 24 21 0 25 -10 36 -87 6 -37 15 -93 20 -123 6
-30 10 -72 10 -93 -1 -30 4 -39 22 -47 20 -8 19 -9 -14 -9 l-37 -1 6 37 c4 26
3 34 -5 29 -7 -4 -12 -16 -12 -27 0 -21 -16 -26 -23 -6 -4 10 -6 10 -6 0 -1
-18 -26 -16 -41 2 -28 33 -160 6 -160 -33 0 -9 9 -32 20 -50 11 -18 20 -37 20
-43 0 -29 31 -41 98 -37 37 2 75 8 85 12 15 7 17 2 17 -40 0 -27 -6 -80 -14
-119 -8 -38 -13 -86 -11 -105 5 -67 27 -195 35 -205 4 -5 31 -55 60 -110 44
-83 86 -159 96 -173 4 -6 129 30 143 41 7 6 26 10 42 9 16 -2 29 1 29 7 0 6
-7 11 -15 11 -8 0 -15 5 -15 11 0 5 -4 7 -10 4 -5 -3 -10 -1 -10 5 0 7 -7 9
-16 6 -12 -5 -15 -2 -10 10 3 8 6 18 6 20 0 10 30 3 37 -9 4 -7 28 -21 52 -31
38 -15 52 -15 93 -5 28 6 53 8 58 3 4 -5 10 -31 12 -59 2 -27 17 -164 33 -303
23 -195 27 -255 18 -260 -7 -5 -75 -23 -152 -42 -77 -18 -137 -38 -134 -42 6
-10 63 0 78 13 18 18 32 9 27 -16 -5 -30 -20 -42 -28 -22 -4 12 -11 13 -34 4
-22 -8 -33 -7 -53 6 -26 16 -62 14 -51 -4 6 -11 -16 -12 -32 -1 -6 4 -14 14
-17 22 -4 13 -6 12 -6 -1 -1 -13 -16 -18 -68 -23 -38 -4 -89 -9 -115 -12 -33
-4 -48 -2 -48 6 0 6 -4 9 -9 5 -5 -3 -12 -1 -16 5 -12 20 -72 11 -88 -13 l-16
-22 -1 25 c0 14 -1 36 -1 50 -1 14 2 35 6 48 6 18 4 21 -9 16 -9 -3 -16 -17
-16 -30 0 -17 -6 -24 -20 -24 -19 0 -24 9 -21 35 0 6 -13 19 -29 28 -28 17
-30 22 -30 83 0 48 4 66 15 70 23 9 19 54 -4 54 -24 0 -28 13 -35 115 -4 44
-9 101 -12 127 l-6 46 105 4 c58 1 108 6 111 9 7 7 -26 89 -68 168 -27 51 -29
54 -42 36 -14 -18 -18 -16 -74 45 -32 36 -59 70 -60 76 0 6 -6 24 -13 40 -29
61 -37 78 -30 59 12 -35 16 -226 4 -238 -27 -27 -35 12 -33 160 3 149 1 157
-38 219 -20 32 -5 135 21 141 30 8 18 36 -21 50 -33 11 -34 12 -7 12 24 1 27
5 27 36 0 31 -2 35 -17 26 -10 -5 -26 -5 -40 0 -21 8 -23 6 -23 -25 0 -30 -3
-33 -21 -29 -12 4 -24 14 -26 25 -3 10 -10 18 -17 19 -6 0 -54 2 -106 5 -52 2
-100 6 -107 9 -7 2 -15 -1 -19 -6 -4 -7 -32 -9 -80 -4 -70 6 -74 6 -74 -14 0
-11 -5 -23 -10 -26 -17 -10 -49 5 -55 26 -5 13 -15 19 -38 19 -23 0 -28 -3
-20 -11 6 -6 9 -17 7 -24 -8 -20 45 -55 82 -55 19 0 34 4 34 9 0 19 30 19 67
0 21 -11 49 -18 62 -16 23 5 23 4 17 -58 -3 -35 -12 -78 -20 -97 -7 -18 -19
-78 -25 -133 -17 -142 -18 -144 -57 -167 l-35 -20 28 -37 c15 -20 31 -37 35
-39 13 -6 9 -30 -6 -35 -8 -3 -20 -25 -27 -49 -6 -24 -20 -60 -31 -81 -11 -21
-18 -40 -17 -42 2 -2 31 -12 64 -23 l60 -19 3 22 c3 22 71 85 91 85 12 0 47
-74 56 -117 6 -28 11 -33 34 -33 41 0 285 -20 288 -24 3 -3 -28 -150 -43 -203
-3 -13 -10 -20 -15 -18 -4 3 -6 -3 -4 -15 2 -11 0 -22 -5 -25 -5 -3 -7 -12 -4
-19 7 -17 -42 -197 -84 -314 l-15 -43 -51 5 c-28 3 -101 11 -162 17 l-112 11
-6 30 c-6 29 -26 31 -26 2 0 -8 -4 -14 -10 -14 -5 0 -10 4 -10 9 0 13 -60 42
-71 35 -5 -3 -7 -8 -5 -12 2 -4 -2 -13 -10 -20 -8 -7 -14 -9 -14 -4 0 6 -11
12 -24 14 -17 4 -23 1 -19 -9 3 -7 11 -13 19 -13 11 0 13 -9 9 -37 -43 -305
-79 -573 -95 -723 -20 -183 -21 -185 -53 -218 -18 -19 -52 -43 -77 -55 -46
-23 -47 -25 -35 -66 7 -22 5 -23 -16 -17 -13 3 -91 1 -172 -6 -123 -9 -150 -9
-157 2 -7 11 -33 11 -152 -5 -195 -25 -834 -29 -844 -5 -3 8 -6 65 -5 125 l0
110 -15 -45 c-8 -25 -16 -55 -18 -67 -2 -12 -10 -33 -19 -47 -16 -24 -16 -26
10 -45 20 -16 22 -21 9 -21 -28 0 -111 93 -124 139 -7 22 -18 41 -24 41 -19 0
-36 29 -152 260 -62 124 -133 258 -159 298 -26 40 -72 121 -103 180 -31 59
-60 112 -65 118 -13 16 -39 140 -39 186 0 25 -23 87 -69 185 -38 82 -75 163
-81 181 -15 38 -25 40 -51 10 -18 -22 -18 -60 -19 -1040 0 -669 3 -1019 10
-1023 7 -4 7 -12 0 -25 -6 -12 -10 -162 -10 -394 l0 -376 84 0 84 0 22 82 c12
46 29 106 39 133 28 77 33 106 20 103 -7 -2 -16 13 -21 32 -16 63 -15 65 20
66 43 1 56 21 81 121 26 102 26 102 -1 96 -19 -4 -20 -3 -8 6 13 9 13 11 -2
11 -17 0 -17 1 0 18 16 17 17 17 24 -3 6 -20 6 -20 7 0 1 11 8 29 16 39 8 11
15 41 15 67 0 59 15 73 71 64 41 -7 192 17 235 37 15 7 28 7 43 -1 12 -7 27
-9 33 -5 6 4 26 7 45 6 20 -1 31 3 28 8 -8 13 19 40 40 40 20 0 32 -30 16 -40
-17 -10 21 -20 76 -20 42 0 73 -19 73 -45 0 -7 7 -15 15 -19 8 -3 15 -11 15
-19 0 -7 15 -17 32 -22 40 -12 47 -39 18 -70 l-21 -22 28 -6 c15 -3 31 -1 34
5 4 6 9 4 12 -5 3 -9 14 -13 31 -10 16 3 23 10 19 19 -3 8 -1 14 5 14 5 0 12
-7 16 -15 6 -17 36 -21 36 -4 0 6 10 10 23 9 42 -4 68 0 63 9 -4 5 0 12 6 15
10 5 10 7 1 12 -10 4 -10 9 1 19 11 11 20 11 52 0 27 -9 44 -10 58 -3 15 8 16
12 5 19 -8 5 -21 9 -29 9 -8 0 -21 9 -28 20 -15 25 -67 27 -76 4 -5 -12 -14
-15 -36 -10 -22 4 -30 2 -30 -8 0 -17 -22 -26 -61 -26 -29 0 -40 -14 -16 -23
6 -2 9 -8 5 -12 -5 -5 -16 2 -27 13 -10 12 -23 22 -30 22 -6 0 -11 5 -11 10 0
6 5 10 10 10 6 0 10 5 10 11 0 5 -5 7 -11 4 -15 -10 -61 4 -53 16 3 6 -2 17
-12 24 -11 8 -14 15 -8 15 6 0 13 -3 16 -6 6 -6 75 -12 190 -18 64 -3 91 3 89
19 -1 8 22 8 111 2 20 -1 34 1 32 5 -3 4 42 8 100 8 58 0 107 -4 110 -8 2 -4
19 -9 36 -10 19 -2 29 1 25 8 -3 5 -1 10 4 10 6 0 11 -4 11 -10 0 -5 7 -10 16
-10 8 0 13 -4 10 -9 -3 -5 3 -11 14 -14 30 -8 24 -19 -25 -50 -51 -32 -249
-77 -360 -81 -38 -2 -85 -9 -103 -16 -18 -7 -44 -10 -58 -7 -13 2 -27 0 -30
-4 -6 -11 3 -12 84 -9 37 1 69 -3 77 -10 22 -18 325 -17 325 2 0 17 53 29 81
19 18 -6 31 -6 34 0 4 5 15 13 25 19 21 11 55 -14 46 -35 -3 -9 21 -12 100
-12 58 0 107 4 110 8 2 4 18 3 34 -3 41 -14 346 -4 365 12 11 9 25 10 54 2 24
-5 58 -6 84 -1 24 4 60 4 80 -1 21 -4 39 -4 42 0 3 5 49 6 103 4 53 -2 104 -5
112 -5 8 0 114 2 235 5 285 8 269 8 350 2 39 -3 198 0 355 5 157 6 344 11 417
10 81 0 135 4 139 10 4 7 12 4 24 -6 16 -15 18 -15 24 1 5 14 15 15 59 10 28
-4 79 -14 112 -22 43 -12 105 -15 220 -14 88 0 263 -2 390 -5 156 -4 255 -3
310 5 94 14 117 17 208 21 38 2 70 6 72 10 3 3 161 7 352 9 192 1 422 4 513 6
91 3 235 6 320 8 189 3 172 0 204 33 18 18 23 30 16 37 -16 16 -12 34 9 41 10
3 21 14 24 24 5 21 57 32 82 18 9 -5 20 -6 23 -2 4 4 1 10 -5 12 -7 3 -13 10
-13 16 0 23 -70 69 -96 64 -15 -2 -31 2 -40 10 -13 14 -17 13 -28 -3 -18 -24
0 -56 26 -48 10 3 18 0 18 -6 0 -8 13 -10 41 -5 33 6 40 4 37 -6 -7 -20 -136
-12 -193 12 -17 7 -37 11 -46 10 -10 -1 -47 5 -84 14 -94 21 -97 21 -80 -12 7
-14 20 -30 27 -34 8 -6 -1 -9 -25 -9 -21 0 -36 4 -33 9 4 5 0 12 -6 14 -10 4
-10 6 0 6 10 1 10 5 -2 17 -18 18 -13 34 12 34 14 0 15 2 2 10 -11 7 -9 11 13
19 16 6 43 11 60 12 18 0 26 3 20 6 -38 15 -1 21 92 16 l105 -6 0 26 c0 20 5
27 19 27 11 0 22 -6 24 -12 3 -7 6 -4 7 7 1 20 1 20 15 1 15 -19 15 -19 15 1
0 25 30 39 45 21 5 -7 18 -14 28 -14 15 -2 16 1 5 15 -7 9 -17 19 -23 23 -6 5
-6 8 1 8 6 0 23 -9 38 -21 19 -15 25 -27 21 -40 -4 -10 -2 -19 3 -19 18 0 30
-55 22 -105 -9 -57 -5 -71 26 -103 33 -34 89 -147 113 -227 11 -38 28 -117 36
-175 9 -58 28 -141 42 -184 14 -43 27 -95 28 -115 2 -20 8 -48 14 -63 l11 -28
275 0 275 0 0 78 c0 42 4 82 8 89 12 19 97 26 174 13 40 -7 77 -17 83 -22 14
-12 37 -10 29 3 -4 7 -1 10 7 7 8 -3 13 -10 12 -14 -1 -5 20 -21 47 -35 30
-16 46 -21 43 -12 -3 7 -9 13 -15 13 -5 0 -16 6 -23 14 -12 12 -12 15 1 20 21
8 26 8 21 -1 -3 -5 5 -8 18 -8 13 0 21 3 19 6 -2 4 3 9 11 13 8 3 15 0 15 -7
1 -7 8 1 16 16 14 25 20 28 54 25 26 -2 36 0 33 8 -7 18 35 28 101 25 38 -2
56 1 52 7 -3 6 -1 14 5 18 6 4 16 -1 21 -10 7 -12 24 -16 71 -16 38 0 57 4 48
9 -17 11 1 23 39 27 101 11 120 11 130 -1 9 -10 18 -11 36 -4 14 5 44 9 67 9
39 1 41 2 23 15 -19 14 -18 15 12 15 18 0 32 -4 32 -9 0 -5 17 -12 37 -16 21
-4 40 -11 43 -16 3 -4 26 -2 50 5 25 7 59 10 75 8 17 -3 143 -5 281 -4 l251 2
12 -63 c37 -199 41 -207 91 -207 l40 0 0 250 0 250 -22 0 c-52 0 -194 34 -210
50 -9 10 -33 21 -52 24 -44 8 -44 14 -15 152 28 134 39 247 25 256 -8 6 -7 11
2 16 10 7 10 15 2 37 -6 16 -8 41 -4 55 3 14 8 59 9 100 2 41 13 113 25 159
l21 84 -32 33 c-38 40 -48 94 -48 280 l-1 112 -57 4 c-71 6 -294 91 -391 149
-119 71 -304 267 -567 600 -27 35 -58 73 -67 84 -157 190 -201 240 -207 243
-5 1 -41 -37 -82 -85 -136 -163 -347 -361 -590 -554 -59 -46 -187 -148 -285
-226 -182 -144 -350 -276 -443 -348 -28 -22 -69 -51 -91 -64 l-40 -23 0 118
c0 158 -17 441 -31 521 l-11 65 -139 -7 -138 -7 -4 53 -3 54 -2 -54 -2 -53
-60 4 c-33 2 -60 1 -60 -4 0 -13 -18 -9 -35 9 -14 14 -22 15 -46 6 -22 -9 -29
-8 -29 1 0 7 -20 17 -45 22 l-45 9 -4 107 c-2 60 0 126 4 148 4 22 3 43 -1 46
-5 3 -9 20 -9 39 0 24 -5 35 -17 38 -16 4 -16 5 0 6 17 1 18 10 15 122 -3 116
-2 120 17 114 11 -3 33 -8 49 -12 l29 -6 -58 109 c-32 60 -66 120 -77 133 -22
28 -11 41 35 41 16 0 26 4 22 10 -4 6 11 10 38 10 42 0 45 -2 51 -31 11 -54 7
-89 -9 -89 -8 0 -12 -6 -9 -14 3 -8 1 -17 -5 -21 -23 -14 -11 -40 19 -42 22
-2 36 6 56 30 23 27 26 38 21 82 -7 70 2 145 19 145 7 0 26 -11 42 -25 36 -30
37 -30 69 -5 34 27 38 25 41 -11 1 -17 7 -39 12 -49 6 -10 10 -31 10 -46 0
-22 -2 -25 -15 -14 -13 11 -15 8 -15 -14 0 -35 -13 -33 -27 4 -9 25 -9 31 5
39 15 9 14 12 -7 35 -31 33 -37 33 -61 -6 -14 -24 -16 -35 -8 -45 8 -10 7 -12
-5 -8 -28 11 -29 -15 0 -61 79 -127 74 -113 52 -155 l-19 -38 23 -3 c45 -6
332 28 355 42 22 14 23 20 19 71 -3 32 -16 78 -31 108 -23 44 -25 55 -14 68
11 14 10 15 -9 9 -15 -5 -38 1 -70 18 -58 31 -70 32 -78 6 -3 -11 -15 -20 -26
-20 -16 0 -19 7 -19 43 0 23 7 82 15 130 9 49 13 107 10 130 -18 134 -18 177
-1 183 11 4 16 18 16 43 0 37 -2 38 -55 56 -53 18 -59 18 -157 2 -57 -9 -141
-22 -188 -28 -47 -6 -86 -12 -88 -13 -1 -2 29 -13 68 -26 l70 -23 0 -66 c0
-43 -5 -74 -15 -88 -9 -12 -27 -68 -41 -124 -26 -104 -67 -193 -88 -186 -13 4
-27 77 -14 77 5 0 6 5 3 10 -3 6 -13 10 -22 10 -12 0 -14 -9 -8 -48 l6 -49
-43 2 c-24 1 -53 5 -65 9 -18 6 -23 3 -23 -9 0 -9 -5 -13 -10 -10 -6 4 -17 2
-24 -4 -7 -6 -52 -12 -99 -13 -76 -3 -87 -5 -87 -21 0 -13 -6 -18 -22 -15 -17
2 -24 11 -26 33 -5 50 -10 59 -27 45 -12 -10 -16 -9 -21 4 -6 17 -5 26 19 89
7 20 16 35 19 31 12 -11 -4 122 -18 153 -17 37 -18 73 -3 73 7 0 8 14 4 39 -6
36 -4 40 17 43 32 4 37 43 6 59 -12 7 -27 17 -33 23 -14 15 -17 57 -4 72 11
13 -4 54 -19 54 -10 0 -33 -39 -41 -68 -6 -22 -10 -19 -49 38 -43 65 -53 100
-28 100 8 0 16 5 18 12 3 7 23 -2 53 -25 26 -20 51 -37 55 -37 12 0 70 69 71
83 0 7 4 3 9 -8 16 -37 10 -95 -15 -147 -14 -28 -24 -53 -22 -54 4 -5 311 37
317 42 7 8 -64 71 -90 79 -14 5 -38 9 -55 9 -24 1 -31 6 -33 26 -2 14 -18 37
-35 52 -18 15 -26 27 -18 28 10 0 11 3 2 14 -7 9 -9 29 -5 55 8 50 -11 57 -21
9 -4 -18 -16 -48 -27 -66 -19 -31 -23 -33 -71 -30 -28 2 -52 8 -54 15 -3 9 6
10 33 6 29 -5 40 -2 51 13 8 10 17 17 21 14 11 -8 14 58 3 77 -8 15 -10 13 -8
-11 1 -18 -4 -31 -12 -34 -10 -3 -12 0 -8 12 5 12 0 16 -22 16 -25 0 -28 3
-23 23 5 22 5 22 -16 3 -12 -11 -22 -21 -22 -22 0 -2 12 -10 28 -18 l27 -15
-34 -1 c-25 0 -32 4 -28 14 7 17 -10 33 -38 38 -48 8 -46 56 5 123 l40 52 61
-1 c74 -2 92 -19 104 -98 l8 -53 8 65 c21 161 17 149 52 152 26 2 32 8 34 28
2 21 -8 32 -68 69 l-70 44 -122 -17 c-67 -9 -150 -16 -184 -16 -35 0 -63 -4
-63 -9 0 -6 27 -27 60 -47 60 -37 60 -38 57 -78 -2 -23 -7 -40 -13 -39 -46 12
-224 86 -329 138 -71 35 -143 69 -159 75 -45 17 -202 111 -296 179 l-85 61
-540 -1 -540 0 -95 -52z m1678 -399 c8 -8 12 -46 12 -105 0 -68 3 -93 13 -93
10 1 249 89 311 115 17 7 18 5 11 -21 -4 -16 -9 -80 -10 -141 0 -62 -4 -116
-8 -119 -4 -4 9 -22 28 -41 40 -39 89 -102 84 -107 -10 -10 -224 -25 -227 -17
-2 6 -9 8 -15 5 -7 -2 -18 10 -25 28 -25 61 -51 103 -64 103 -18 0 -19 -95 -1
-102 18 -7 16 -30 -2 -41 -20 -11 -9 -42 14 -42 16 0 16 -15 -10 -215 -15
-119 -30 -229 -34 -245 -8 -36 -3 -37 29 -5 15 15 31 22 41 19 15 -6 94 -116
128 -179 35 -64 53 -77 97 -70 38 6 40 8 40 43 0 51 10 80 27 84 12 3 12 6 -1
23 -12 15 -18 17 -24 8 -6 -10 -14 -9 -34 1 -23 12 -28 12 -45 -6 -20 -19 -20
-19 -33 13 -11 25 -11 34 -2 37 7 2 12 10 12 18 0 19 13 18 40 -6 29 -26 48
-25 76 1 29 27 40 19 48 -35 6 -41 -4 -96 -29 -157 -5 -14 0 -15 42 -8 26 4
55 8 63 9 9 1 6 5 -8 11 -13 5 -20 13 -17 19 10 16 33 11 39 -8 6 -18 11 -18
102 -5 53 8 98 12 101 9 4 -4 41 -399 43 -455 0 -11 6 -9 23 7 21 20 23 20 23
2 0 -10 -5 -16 -11 -13 -5 3 -2 -3 9 -13 13 -14 20 -15 23 -6 3 6 16 12 29 12
21 0 24 -4 24 -40 0 -22 -4 -40 -9 -40 -5 0 -12 -11 -15 -24 -3 -13 -17 -31
-30 -39 -21 -14 -23 -20 -15 -59 5 -24 9 -85 9 -135 -1 -67 2 -93 11 -93 7 0
9 3 6 6 -3 4 -1 16 5 28 7 11 17 48 23 81 11 59 11 61 -18 104 -25 36 -27 43
-11 36 10 -5 33 -8 49 -7 25 1 34 -6 56 -42 25 -40 27 -55 33 -197 9 -207 34
-640 41 -711 l6 -57 -56 31 c-30 16 -60 39 -66 50 -15 29 -24 294 -11 340 13
49 2 58 -71 58 l-60 0 7 90 c4 57 3 90 -3 90 -6 0 -64 -34 -129 -75 -66 -41
-123 -75 -128 -75 -5 1 -33 40 -63 88 -30 48 -68 108 -84 134 -27 42 -28 50
-19 92 11 53 6 60 -10 15 -10 -28 -12 -29 -26 -15 -14 14 -14 17 3 36 10 11
21 20 25 20 4 0 45 25 91 56 82 54 83 55 43 49 -37 -6 -219 -9 -236 -5 -5 2
-13 3 -18 4 -6 0 -15 8 -21 16 -9 12 -9 11 -4 -5 18 -52 18 -51 6 -35 -10 13
-12 13 -21 0 -6 -10 -10 -11 -10 -2 0 6 -5 12 -11 12 -7 0 -17 7 -23 15 -7 9
-31 16 -64 17 -30 1 -56 6 -59 11 -3 5 -7 32 -9 61 -18 270 -35 509 -39 545
-4 35 -2 42 10 37 28 -10 15 16 -27 58 -50 49 -88 56 -88 16 0 -25 0 -25 -79
-22 -86 4 -83 2 -101 77 -7 29 -7 29 -9 4 0 -14 -12 -35 -25 -46 -22 -20 -25
-20 -84 -5 -34 9 -63 14 -65 12 -2 -3 -2 -36 1 -73 4 -67 5 -68 31 -63 14 3
47 8 72 12 l46 6 6 -74 c13 -149 31 -578 25 -584 -4 -3 -26 -8 -50 -11 -24 -3
-48 -9 -54 -14 -6 -5 -28 -7 -50 -5 -25 2 -45 -2 -56 -12 -11 -9 -18 -11 -18
-4 0 9 -25 10 -89 5 l-90 -6 -4 34 -4 34 -1 -36 -2 -36 -107 3 c-60 2 -142 6
-183 9 -41 2 -77 5 -80 5 -3 0 -6 46 -8 103 -4 194 -22 546 -28 562 -6 14 1
15 46 9 31 -4 51 -3 49 2 -45 110 -50 115 -91 93 -28 -15 -68 23 -69 65 l-1
31 -8 -32 c-10 -45 -32 -63 -79 -63 -55 0 -91 15 -91 39 0 31 -72 129 -110
149 l-34 19 -4 139 c-2 76 -5 141 -7 143 -13 12 -61 -44 -79 -92 l-21 -56 -1
102 c0 72 -5 113 -17 141 -11 24 -17 65 -17 112 l0 73 48 6 c89 12 106 16 91
26 -16 10 82 12 117 3 11 -3 29 -21 39 -40 10 -19 24 -33 31 -30 13 5 25 -37
27 -91 0 -28 5 -33 41 -42 29 -7 54 -7 86 1 55 13 56 14 64 63 4 25 3 35 -2
26 -6 -9 -12 -10 -16 -2 -4 6 -32 9 -70 6 -61 -4 -64 -3 -70 20 -4 14 -13 25
-20 25 -41 0 -58 92 -21 112 8 5 13 13 10 19 -4 5 -1 9 4 9 6 0 10 3 10 8 -5
27 3 33 35 27 19 -4 43 -2 56 5 18 10 25 8 44 -9 12 -12 26 -21 31 -21 17 0
34 -36 35 -72 0 -21 5 -38 10 -38 6 0 10 8 10 18 0 13 6 10 24 -13 34 -42 38
-25 34 139 -2 74 1 131 5 127 5 -5 11 -64 13 -132 7 -174 4 -166 67 -174 66
-8 224 15 382 57 135 35 176 39 183 19 3 -8 0 -11 -7 -7 -7 5 -11 -6 -11 -36
0 -37 7 -51 46 -96 25 -28 51 -52 58 -52 20 0 61 51 89 111 15 31 27 60 27 65
0 5 7 21 14 36 9 16 11 30 5 33 -5 4 -9 -1 -9 -9 0 -18 -16 -21 -25 -6 -4 6
-12 7 -22 1 -9 -4 -24 -6 -34 -4 -15 4 -17 11 -13 32 12 49 21 55 28 19 5 -30
10 -35 30 -31 13 3 28 15 34 26 10 22 10 22 20 -3 l11 -25 0 26 c1 20 10 29
46 45 l46 19 3 88 c3 65 0 92 -10 102 -8 7 -14 16 -14 19 0 10 15 7 28 -6z
m-1653 -347 c3 -5 0 -94 -7 -198 -7 -103 -12 -234 -10 -290 3 -103 -6 -143
-32 -143 -8 0 -24 -17 -37 -37 l-23 -38 -6 35 c-3 19 -1 38 3 41 12 8 1 38
-23 68 l-20 24 -30 -32 c-34 -35 -38 -49 -13 -47 22 1 27 -23 12 -60 l-11 -29
-25 55 c-15 31 -28 81 -31 115 l-4 59 36 -27 c26 -20 48 -28 81 -29 52 -1 75
14 75 48 0 24 -15 33 -22 13 -2 -6 -27 -14 -56 -17 -48 -4 -54 -2 -82 28 -29
31 -37 63 -32 139 1 26 18 42 36 35 18 -6 45 21 43 44 -1 18 -7 22 -39 22 -31
0 -38 4 -38 20 0 23 17 25 55 8 21 -9 32 -8 61 5 56 27 82 23 92 -15 5 -18 9
-34 8 -35 -1 -1 -14 1 -31 5 l-30 6 25 7 c22 6 21 7 -11 8 -30 1 -38 -3 -42
-21 -8 -30 9 -47 41 -42 15 3 35 6 45 7 9 1 17 6 18 12 0 5 2 63 4 128 4 111
3 117 -15 117 -11 0 -20 5 -20 10 0 13 47 13 55 1z m-1063 -278 c16 -14 23
-15 58 -3 28 9 44 10 51 3 7 -7 0 -12 -22 -17 l-32 -6 7 -50 c6 -47 5 -50 -19
-56 -36 -9 -20 -24 26 -24 43 0 43 -1 30 34 -9 23 -8 25 32 31 23 4 45 12 49
18 4 6 10 -1 13 -16 5 -20 2 -34 -11 -49 -14 -15 -16 -22 -6 -25 6 -3 12 -9
12 -14 0 -6 -4 -7 -10 -4 -5 3 -10 -1 -10 -9 0 -9 6 -16 13 -16 6 0 -2 -13
-19 -29 -21 -18 -46 -30 -78 -34 -85 -12 -128 29 -142 137 l-6 43 43 -1 c40
-1 44 1 47 26 4 30 -18 40 -55 26 -18 -6 -23 -4 -23 10 0 17 18 42 29 42 2 0
13 -7 23 -17z m4108 -76 c30 1 49 -5 57 -16 18 -24 16 -51 -4 -51 -14 0 -15 2
-4 9 19 12 0 20 -26 10 -13 -5 -23 -17 -23 -28 0 -26 32 -45 49 -28 8 8 15 7
28 -5 14 -14 14 -21 3 -47 -15 -37 -23 -39 -37 -8 -9 20 -17 23 -48 19 -21 -3
-40 0 -44 6 -4 6 -11 5 -19 -4 -10 -11 -8 -15 13 -20 14 -3 36 -3 49 0 14 3
28 2 31 -4 4 -6 -21 -10 -68 -10 -83 0 -104 12 -93 55 6 24 9 25 56 19 l49 -6
-1 31 c-1 17 -6 31 -12 32 -6 0 -21 2 -33 5 -24 4 -32 -11 -10 -19 6 -3 2 -6
-10 -6 -27 -1 -27 -1 -6 44 14 30 21 35 38 29 11 -4 40 -7 65 -7z m-980 -11
c14 -8 38 -12 57 -9 18 3 33 2 33 -3 0 -5 3 -20 7 -33 4 -17 3 -22 -6 -17 -18
12 -51 -4 -51 -24 0 -13 10 -22 33 -28 26 -7 33 -14 35 -39 4 -41 -34 -120
-61 -129 -22 -7 -56 -7 -89 -1 -36 6 -66 48 -73 98 -9 65 3 79 66 79 45 0 49
2 49 24 0 22 -6 26 -46 32 l-45 6 27 29 c32 33 31 33 64 15z m455 -416 c20
-23 76 -25 68 -3 -3 7 -1 13 5 13 17 0 23 -30 7 -36 -8 -4 -12 -10 -9 -15 3
-5 -1 -31 -10 -57 -8 -26 -20 -74 -26 -107 -7 -33 -15 -64 -18 -69 -3 -5 -15
11 -28 35 -20 38 -23 59 -24 152 0 59 4 107 8 107 5 0 17 -9 27 -20z m3218
-2113 c-5 -39 -3 -45 17 -50 12 -3 24 -15 27 -26 6 -25 23 -28 23 -5 0 10 6
14 14 11 16 -6 43 19 32 30 -4 4 -15 2 -24 -4 -21 -12 -51 4 -45 24 3 7 -3 9
-16 6 -22 -6 -24 -1 -15 35 7 25 24 30 24 7 0 -9 6 -12 15 -9 9 4 15 0 15 -10
0 -18 15 -21 25 -6 9 15 35 -8 35 -31 0 -10 5 -21 10 -24 28 -17 -1 -75 -37
-75 -10 -1 -29 -7 -43 -15 -28 -16 -41 -19 -39 -7 1 4 0 16 -1 27 -1 16 -3 15
-12 -8 -13 -35 1 -53 47 -61 51 -10 43 -26 -12 -27 -47 0 -47 -1 -25 -16 25
-18 29 -33 7 -33 -8 0 -15 6 -15 13 0 7 -21 24 -47 37 -50 26 -112 86 -113
108 0 7 -12 17 -26 22 -41 16 -17 31 45 28 42 -2 57 -7 54 -15 -3 -7 0 -13 7
-13 27 0 54 48 39 71 -7 11 -9 11 -9 -3 0 -10 -7 -18 -15 -18 -8 0 -15 5 -15
11 0 8 -5 8 -15 -1 -13 -10 -15 -9 -15 11 0 26 29 50 70 60 36 8 38 4 33 -44z
m-1005 -7 c10 0 10 -5 2 -20 -6 -11 -8 -25 -5 -30 3 -5 -1 -40 -9 -77 -8 -37
-17 -88 -21 -113 -4 -33 -10 -46 -23 -47 -9 -1 -60 -7 -112 -12 -149 -15 -234
7 -260 69 -9 23 -16 28 -25 20 -15 -12 -28 13 -20 39 3 10 -4 20 -21 28 -25
12 -25 11 -11 -5 11 -11 13 -22 7 -32 -7 -12 -12 -11 -29 4 -12 11 -21 17 -21
13 0 -3 -3 -13 -7 -23 -4 -11 -3 -15 4 -11 6 4 14 0 17 -9 8 -21 3 -26 -18
-18 -22 8 -23 148 -2 170 34 34 76 -5 76 -72 0 -16 2 -17 10 -4 7 11 10 7 10
-19 0 -27 3 -31 14 -22 10 8 11 22 6 51 -4 23 -10 43 -13 46 -3 4 2 15 12 25
15 16 24 17 75 9 43 -7 65 -6 85 3 14 7 43 12 64 10 28 -2 37 2 37 13 0 9 6
14 13 11 6 -2 11 -11 9 -21 -2 -9 2 -16 8 -16 6 0 9 4 6 9 -8 12 43 33 65 26
11 -4 19 -2 19 5 0 8 8 10 23 6 12 -3 28 -6 35 -6z m359 -5 c-2 -5 -13 -11
-25 -13 -23 -4 -31 -35 -12 -47 6 -3 10 -1 10 4 0 14 37 14 45 1 3 -5 15 -10
26 -10 10 0 19 -5 19 -11 0 -7 11 -9 30 -5 22 4 30 2 30 -9 0 -7 9 -20 20 -28
11 -8 23 -28 26 -44 5 -26 3 -31 -12 -30 -11 1 -23 -8 -29 -20 -14 -32 -39
-30 -33 2 6 27 -9 33 -31 13 -11 -11 -13 -10 -8 5 4 10 3 16 -2 12 -5 -3 -11
1 -14 7 -2 7 -8 9 -13 5 -4 -4 -3 -17 4 -27 7 -11 10 -20 8 -20 -2 0 -13 -3
-23 -6 -15 -5 -15 -4 -3 5 11 8 11 11 2 11 -7 0 -15 -7 -18 -15 -7 -18 -64
-15 -64 3 0 8 -8 16 -19 19 -40 10 -73 146 -33 138 9 -2 20 -4 25 -4 4 -1 7
-8 7 -16 0 -25 17 -17 24 11 7 28 -7 54 -30 54 -8 0 -14 5 -14 10 0 6 10 8 24
4 13 -3 27 -1 30 4 8 13 57 10 53 -3z m-8392 -71 c54 -13 91 -12 88 4 -2 7 7
12 22 12 23 0 25 -3 24 -47 -1 -27 -3 -40 -6 -30 -5 20 -23 23 -24 5 0 -10 -2
-10 -6 0 -7 19 -33 14 -33 -6 0 -16 -15 -20 -102 -30 -118 -13 -292 -24 -265
-16 24 7 22 34 -3 34 -44 0 -16 27 53 50 39 13 75 27 79 30 11 8 130 4 173 -6z
m7363 -91 c36 -24 42 -32 42 -71 0 -28 -3 -32 -19 -27 -11 3 -25 -1 -34 -10
-9 -8 -23 -15 -31 -15 -9 0 -16 -5 -16 -11 0 -8 -5 -8 -15 1 -21 17 -19 30 4
27 21 -2 21 -2 21 38 0 20 -5 25 -26 25 -19 0 -25 -4 -20 -15 3 -10 -1 -15
-13 -15 -29 0 -32 -12 -9 -37 28 -30 16 -29 -30 2 -44 30 -55 31 -47 6 5 -16
-1 -19 -32 -23 -50 -6 -64 10 -70 77 l-4 54 53 3 c172 10 219 8 246 -9z m1512
-308 c25 -4 56 -12 70 -18 14 -5 42 -11 64 -13 21 -1 43 -7 49 -13 6 -6 27
-12 47 -12 l35 -1 -40 -9 c-22 -5 -65 -6 -95 -3 -46 5 -60 2 -82 -15 -25 -20
-33 -20 -249 -14 -123 4 -263 8 -311 8 -49 0 -88 4 -88 9 0 4 -8 5 -17 1 -10
-4 -58 -9 -108 -10 -85 -4 -88 -3 -64 12 14 8 36 30 48 49 l23 33 147 3 c250
5 524 2 571 -7z"/>
<path d="M4932 3760 c-12 -21 -25 -30 -42 -30 -42 0 -224 30 -229 38 -3 4 -33
8 -66 10 l-60 3 32 -23 c18 -13 33 -29 33 -35 0 -7 8 -13 18 -13 9 0 24 -6 33
-13 15 -11 15 -19 -7 -92 -16 -52 -25 -111 -27 -170 -3 -74 -8 -101 -31 -149
-30 -64 -27 -84 7 -45 48 55 50 55 115 -11 61 -60 65 -67 34 -52 -9 5 -30 5
-47 1 l-30 -7 28 -1 c19 -1 31 -9 39 -26 6 -14 15 -25 19 -25 4 0 21 -12 38
-26 27 -23 31 -33 33 -82 2 -55 2 -56 5 -11 4 52 0 50 145 65 l67 7 3 80 c3
68 0 82 -14 91 -12 7 -18 23 -18 48 0 21 -4 38 -9 38 -19 0 -20 58 -3 155 17
93 20 100 40 97 30 -4 28 12 -7 48 -16 17 -32 47 -36 68 -7 37 -31 92 -41 92
-3 0 -13 -13 -22 -30z m-89 -239 c21 -5 43 -13 49 -19 13 -13 2 -33 -15 -27
-20 8 -35 -8 -38 -39 -4 -26 0 -31 30 -38 26 -7 37 -5 52 8 15 14 19 14 20 3
4 -43 -18 -98 -37 -95 -8 1 -22 13 -31 27 -24 35 -23 35 -33 20 -12 -20 -41
-6 -33 16 7 17 6 17 -11 1 -9 -10 -22 -18 -27 -18 -5 0 -9 -7 -9 -15 0 -11 12
-15 50 -15 28 0 50 -4 50 -8 0 -10 -82 -8 -97 1 -6 4 -16 0 -23 -8 -6 -7 -17
-11 -25 -9 -18 7 -59 110 -51 130 6 15 9 15 29 -4 23 -21 124 -42 112 -22 -3
5 -1 18 4 29 14 26 -5 41 -58 44 -46 2 -51 8 -18 22 12 6 21 17 19 24 -2 10 5
12 25 7 15 -4 45 -11 66 -15z"/>
<path d="M8620 4767 c-25 -17 -56 -38 -68 -44 -220 -126 -363 -193 -537 -253
-60 -21 -103 -41 -95 -44 8 -3 53 -14 100 -25 219 -50 473 -72 790 -67 l205 3
244 62 c135 34 272 70 305 81 34 10 121 38 194 61 73 23 130 45 125 48 -4 4
-26 13 -48 20 -41 14 -163 70 -319 147 l-90 44 -380 0 -381 0 -45 -33z"/>
<path d="M2095 4514 c-84 -19 -106 -29 -140 -64 -43 -44 -67 -117 -54 -164 8
-28 45 -76 59 -76 3 0 16 17 27 38 21 37 21 37 2 61 -29 35 -21 71 21 99 31
21 43 23 113 20 90 -5 113 -20 127 -83 11 -48 1 -74 -51 -130 -23 -25 -40 -45
-38 -45 2 -1 20 -3 39 -6 64 -9 140 76 140 156 0 63 -51 144 -110 175 -29 15
-105 26 -135 19z"/>
<path d="M2024 4354 l-27 -26 21 -17 c24 -18 42 -68 42 -117 0 -30 0 -30 43
-25 38 5 42 9 45 35 6 51 -8 115 -31 140 -35 39 -62 42 -93 10z"/>
<path d="M2405 4361 l-50 -6 -2 -102 -2 -101 45 -4 44 -3 6 47 c5 35 11 48 23
48 13 0 15 -9 13 -54 l-4 -54 33 4 c18 2 33 5 34 6 7 14 34 212 29 219 -6 10
-87 10 -169 0z"/>
<path d="M2125 3970 c-3 -6 -3 -19 0 -30 5 -14 2 -20 -9 -20 -9 0 -25 -9 -36
-20 -22 -22 -25 -19 -11 9 7 13 5 20 -10 29 -11 7 -19 8 -19 2 0 -5 6 -10 13
-10 8 0 8 -3 -2 -9 -12 -8 -12 -15 -1 -43 16 -42 45 -68 76 -68 22 0 24 3 18
27 -4 15 -13 34 -21 41 -7 7 -13 19 -13 25 0 7 4 6 10 -3 8 -13 10 -12 10 3 0
9 5 17 10 17 6 0 10 -4 10 -8 0 -18 63 -81 90 -90 22 -8 36 -6 61 6 32 16 78
81 79 110 0 20 -49 14 -73 -9 -64 -60 -111 -59 -141 5 -19 40 -32 51 -41 36z"/>
</g>
</svg>
