<?xml version="1.0" standalone="no"?>
<!DOCTYPE svg PUBLIC "-//W3C//DTD SVG 20010904//EN"
 "http://www.w3.org/TR/2001/REC-SVG-20010904/DTD/svg10.dtd">
<svg version="1.0" xmlns="http://www.w3.org/2000/svg"
 width="1040.000000pt" height="480.000000pt" viewBox="0 0 1040.000000 480.000000"
 preserveAspectRatio="xMidYMid meet">

<g transform="translate(0.000000,480.000000) scale(0.100000,-0.100000)"
fill="#000000" stroke="none">
<path d="M0 4634 l0 -166 78 7 c42 3 120 13 172 21 52 8 140 21 195 29 55 9
114 19 130 24 17 5 50 12 75 16 64 9 231 45 243 52 10 6 -114 67 -281 139
l-103 44 -254 0 -255 0 0 -166z"/>
<path d="M3930 4778 c-104 -64 -235 -119 -425 -179 -55 -17 -116 -39 -135 -49
-105 -53 -397 -133 -566 -155 l-52 -7 31 -28 31 -27 42 30 c46 32 76 31 95 -4
10 -19 12 -19 50 15 45 41 66 44 97 16 20 -19 24 -20 44 -5 27 18 72 20 86 3
14 -19 25 -58 15 -58 -5 0 -13 10 -18 23 -14 32 -55 34 -84 3 l-24 -25 -19 24
c-11 14 -27 25 -36 25 -18 0 -65 -39 -80 -67 -9 -15 -13 -13 -37 15 -34 41
-57 40 -92 -3 -32 -40 -39 -42 -47 -17 -9 25 -68 62 -100 62 -40 0 -91 -54
-110 -119 -26 -88 -30 -121 -15 -122 8 0 26 -2 41 -3 15 -1 30 4 33 12 4 10 9
10 26 2 11 -6 35 -10 52 -9 41 3 100 -10 110 -25 4 -6 6 25 5 70 -2 58 1 86
11 98 19 23 31 4 31 -50 0 -23 3 -56 6 -74 6 -25 11 -31 26 -26 11 2 31 1 44
-4 24 -9 24 -9 24 60 0 89 26 151 44 104 3 -9 6 -49 6 -91 0 -64 2 -74 16 -69
9 3 29 6 46 6 l30 0 -7 64 c-4 42 -2 72 5 86 19 36 30 11 30 -73 l0 -82 40 0
40 0 2 80 2 80 3 -70 c4 -65 7 -72 39 -103 40 -37 91 -53 105 -31 25 40 -6 65
-61 49 -26 -7 -30 -6 -30 11 0 28 25 34 72 18 31 -10 44 -10 59 -1 45 29 100
6 121 -51 16 -40 17 -41 17 -12 0 17 -6 57 -14 90 -8 33 -14 77 -15 98 0 24
-5 40 -15 43 -19 8 -20 24 -1 24 21 0 25 -10 36 -87 6 -37 15 -93 20 -123 6
-30 10 -72 10 -93 -1 -30 4 -39 22 -47 20 -8 19 -9 -14 -9 l-37 -1 6 37 c4 26
3 34 -5 29 -7 -4 -12 -16 -12 -27 0 -21 -16 -26 -23 -6 -4 10 -6 10 -6 0 -1
-18 -26 -16 -41 2 -28 33 -160 6 -160 -33 0 -9 9 -32 20 -50 11 -18 20 -37 20
-43 0 -29 31 -41 98 -37 37 2 75 8 85 12 15 7 17 2 17 -40 0 -27 -6 -80 -14
-119 -8 -38 -13 -86 -11 -105 5 -67 27 -195 35 -205 4 -5 31 -55 60 -110 44
-83 86 -159 96 -173 4 -6 129 30 143 41 7 6 26 10 42 9 16 -2 29 1 29 7 0 6
-7 11 -15 11 -8 0 -15 5 -15 11 0 5 -4 7 -10 4 -5 -3 -10 -1 -10 5 0 7 -7 9
-16 6 -12 -5 -15 -2 -10 10 3 8 6 18 6 20 0 10 30 3 37 -9 4 -7 28 -21 52 -31
38 -15 52 -15 93 -5 28 6 53 8 58 3 4 -5 10 -31 12 -59 2 -27 17 -164 33 -303
23 -195 27 -255 18 -260 -7 -5 -75 -23 -152 -42 -77 -18 -137 -38 -134 -42 6
-10 63 0 78 13 18 18 32 9 27 -16 -5 -30 -20 -42 -28 -22 -4 12 -11 13 -34 4
-22 -8 -33 -7 -53 6 -26 16 -62 14 -51 -4 6 -11 -16 -12 -32 -1 -6 4 -14 14
-17 22 -4 13 -6 12 -6 -1 -1 -13 -16 -18 -68 -23 -38 -4 -89 -9 -115 -12 -33
-4 -48 -2 -48 6 0 6 -4 9 -9 5 -5 -3 -12 -1 -16 5 -12 20 -72 11 -88 -13 l-16
-22 -1 25 c0 14 -1 36 -1 50 -1 14 2 35 6 48 6 18 4 21 -9 16 -9 -3 -16 -17
-16 -30 0 -17 -6 -24 -20 -24 -19 0 -24 9 -21 35 0 6 -13 19 -29 28 -28 17
-30 22 -30 83 0 48 4 66 15 70 23 9 19 54 -4 54 -24 0 -28 13 -35 115 -4 44
-9 101 -12 127 l-6 46 105 4 c58 1 108 6 111 9 7 7 -26 89 -68 168 -27 51 -29
54 -42 36 -14 -18 -18 -16 -74 45 -32 36 -59 70 -60 76 0 6 -6 24 -13 40 -29
61 -37 78 -30 59 12 -35 16 -226 4 -238 -27 -27 -35 12 -33 160 3 149 1 157
-38 219 -20 32 -5 135 21 141 30 8 18 36 -21 50 -33 11 -34 12 -7 12 24 1 27
5 27 36 0 31 -2 35 -17 26 -10 -5 -26 -5 -40 0 -21 8 -23 6 -23 -25 0 -30 -3
-33 -21 -29 -12 4 -24 14 -26 25 -3 10 -10 18 -17 19 -6 0 -54 2 -106 5 -52 2
-100 6 -107 9 -7 2 -15 -1 -19 -6 -4 -7 -32 -9 -80 -4 -70 6 -74 6 -74 -14 0
-11 -5 -23 -10 -26 -17 -10 -49 5 -55 26 -5 13 -15 19 -38 19 -23 0 -28 -3
-20 -11 6 -6 9 -17 7 -24 -8 -20 45 -55 82 -55 19 0 34 4 34 9 0 19 30 19 67
0 21 -11 49 -18 62 -16 23 5 23 4 17 -58 -3 -35 -12 -78 -20 -97 -7 -18 -19
-78 -25 -133 -17 -142 -18 -144 -57 -167 l-35 -20 28 -37 c15 -20 31 -37 35
-39 13 -6 9 -30 -6 -35 -8 -3 -20 -25 -27 -49 -6 -24 -20 -60 -31 -81 -11 -21
-18 -40 -17 -42 2 -2 31 -12 64 -23 l60 -19 3 22 c3 22 71 85 91 85 12 0 47
-74 56 -117 6 -28 11 -33 34 -33 41 0 285 -20 288 -24 3 -3 -28 -150 -43 -203
-3 -13 -10 -20 -15 -18 -4 3 -6 -3 -4 -15 2 -11 0 -22 -5 -25 -5 -3 -7 -12 -4
-19 7 -17 -42 -197 -84 -314 l-15 -43 -51 5 c-28 3 -101 11 -162 17 l-112 11
-6 30 c-6 29 -26 31 -26 2 0 -8 -4 -14 -10 -14 -5 0 -10 4 -10 9 0 13 -60 42
-71 35 -5 -3 -7 -8 -5 -12 2 -4 -2 -13 -10 -20 -8 -7 -14 -9 -14 -4 0 6 -11
12 -24 14 -17 4 -23 1 -19 -9 3 -7 11 -13 19 -13 11 0 13 -9 9 -37 -43 -305
-79 -573 -95 -723 -20 -183 -21 -185 -53 -218 -18 -19 -52 -43 -77 -55 -46
-23 -47 -25 -35 -66 7 -22 5 -23 -16 -17 -13 3 -91 1 -172 -6 -123 -9 -150 -9
-157 2 -7 11 -33 11 -152 -5 -195 -25 -834 -29 -844 -5 -3 8 -6 65 -5 125 l0
110 -15 -45 c-8 -25 -16 -55 -18 -67 -2 -12 -10 -33 -19 -47 -16 -24 -16 -26
10 -45 20 -16 22 -21 9 -21 -28 0 -111 93 -124 139 -7 22 -18 41 -24 41 -19 0
-36 29 -152 260 -62 124 -133 258 -159 298 -26 40 -72 121 -103 180 -31 59
-60 112 -65 118 -13 16 -39 140 -39 186 0 25 -23 87 -69 185 -38 82 -75 163
-81 181 -15 38 -25 40 -51 10 -18 -22 -18 -60 -19 -1040 0 -669 3 -1019 10
-1023 7 -4 7 -12 0 -25 -6 -12 -10 -162 -10 -394 l0 -376 84 0 84 0 22 82 c12
46 29 106 39 133 28 77 33 106 20 103 -7 -2 -16 13 -21 32 -16 63 -15 65 20
66 43 1 56 21 81 121 26 102 26 102 -1 96 -19 -4 -20 -3 -8 6 13 9 13 11 -2
11 -17 0 -17 1 0 18 16 17 17 17 24 -3 6 -20 6 -20 7 0 1 11 8 29 16 39 8 11
15 41 15 67 0 59 15 73 71 64 41 -7 192 17 235 37 15 7 28 7 43 -1 12 -7 27
-9 33 -5 6 4 26 7 45 6 20 -1 31 3 28 8 -8 13 19 40 40 40 20 0 32 -30 16 -40
-17 -10 21 -20 76 -20 42 0 73 -19 73 -45 0 -7 7 -15 15 -19 8 -3 15 -11 15
-19 0 -7 15 -17 32 -22 40 -12 47 -39 18 -70 l-21 -22 28 -6 c15 -3 31 -1 34
5 4 6 9 4 12 -5 3 -9 14 -13 31 -10 16 3 23 10 19 19 -3 8 -1 14 5 14 5 0 12
-7 16 -15 6 -17 36 -21 36 -4 0 6 10 10 23 9 42 -4 68 0 63 9 -4 5 0 12 6 15
10 5 10 7 1 12 -10 4 -10 9 1 19 11 11 20 11 52 0 27 -9 44 -10 58 -3 15 8 16
12 5 19 -8 5 -21 9 -29 9 -8 0 -21 9 -28 20 -15 25 -67 27 -76 4 -5 -12 -14
-15 -36 -10 -22 4 -30 2 -30 -8 0 -17 -22 -26 -61 -26 -29 0 -40 -14 -16 -23
6 -2 9 -8 5 -12 -5 -5 -16 2 -27 13 -10 12 -23 22 -30 22 -6 0 -11 5 -11 10 0
6 5 10 10 10 6 0 10 5 10 11 0 5 -5 7 -11 4 -15 -10 -61 4 -53 16 3 6 -2 17
-12 24 -11 8 -14 15 -8 15 6 0 13 -3 16 -6 6 -6 75 -12 190 -18 64 -3 91 3 89
19 -1 8 22 8 111 2 20 -1 34 1 32 5 -3 4 42 8 100 8 58 0 107 -4 110 -8 2 -4
19 -9 36 -10 19 -2 29 1 25 8 -3 5 -1 10 4 10 6 0 11 -4 11 -10 0 -5 7 -10 16
-10 8 0 13 -4 10 -9 -3 -5 3 -11 14 -14 30 -8 24 -19 -25 -50 -51 -32 -249
-77 -360 -81 -38 -2 -85 -9 -103 -16 -18 -7 -44 -10 -58 -7 -13 2 -27 0 -30
-4 -6 -11 3 -12 84 -9 37 1 69 -3 77 -10 22 -18 325 -17 325 2 0 17 53 29 81
19 18 -6 31 -6 34 0 4 5 15 13 25 19 21 11 55 -14 46 -35 -3 -9 21 -12 100
-12 58 0 107 4 110 8 2 4 18 3 34 -3 41 -14 346 -4 365 12 11 9 25 10 54 2 24
-5 58 -6 84 -1 24 4 60 4 80 -1 21 -4 39 -4 42 0 3 5 49 6 103 4 53 -2 104 -5
112 -5 8 0 114 2 235 5 285 8 269 8 350 2 39 -3 198 0 355 5 157 6 344 11 417
10 81 0 135 4 139 10 4 7 12 4 24 -6 16 -15 18 -15 24 1 5 14 15 15 59 10 28
-4 79 -14 112 -22 43 -12 105 -15 220 -14 88 0 263 -2 390 -5 156 -4 255 -3
310 5 94 14 117 17 208 21 38 2 70 6 72 10 3 3 161 7 352 9 192 1 422 4 513 6
91 3 235 6 320 8 189 3 172 0 204 33 18 18 23 30 16 37 -16 16 -12 34 9 41 10
3 21 14 24 24 5 21 57 32 82 18 9 -5 20 -6 23 -2 4 4 1 10 -5 12 -7 3 -13 10
-13 16 0 23 -70 69 -96 64 -15 -2 -31 2 -40 10 -13 14 -17 13 -28 -3 -18 -24
0 -56 26 -48 10 3 18 0 18 -6 0 -8 13 -10 41 -5 33 6 40 4 37 -6 -7 -20 -136
-12 -193 12 -17 7 -37 11 -46 10 -10 -1 -47 5 -84 14 -94 21 -97 21 -80 -12 7
-14 20 -30 27 -34 8 -6 -1 -9 -25 -9 -21 0 -36 4 -33 9 4 5 0 12 -6 14 -10 4
-10 6 0 6 10 1 10 5 -2 17 -18 18 -13 34 12 34 14 0 15 2 2 10 -11 7 -9 11 13
19 16 6 43 11 60 12 18 0 26 3 20 6 -38 15 -1 21 92 16 l105 -6 0 26 c0 20 5
27 19 27 11 0 22 -6 24 -12 3 -7 6 -4 7 7 1 20 1 20 15 1 15 -19 15 -19 15 1
0 25 30 39 45 21 5 -7 18 -14 28 -14 15 -2 16 1 5 15 -7 9 -17 19 -23 23 -6 5
-6 8 1 8 6 0 23 -9 38 -21 19 -15 25 -27 21 -40 -4 -10 -2 -19 3 -19 18 0 30
-55 22 -105 -9 -57 -5 -71 26 -103 33 -34 89 -147 113 -227 11 -38 28 -117 36
-175 9 -58 28 -141 42 -184 14 -43 27 -95 28 -115 2 -20 8 -48 14 -63 l11 -28
275 0 275 0 0 78 c0 42 4 82 8 89 12 19 97 26 174 13 40 -7 77 -17 83 -22 14
-12 37 -10 29 3 -4 7 -1 10 7 7 8 -3 13 -10 12 -14 -1 -5 20 -21 47 -35 30
-16 46 -21 43 -12 -3 7 -9 13 -15 13 -5 0 -16 6 -23 14 -12 12 -12 15 1 20 21
8 26 8 21 -1 -3 -5 5 -8 18 -8 13 0 21 3 19 6 -2 4 3 9 11 13 8 3 15 0 15 -7
1 -7 8 1 16 16 14 25 20 28 54 25 26 -2 36 0 33 8 -7 18 35 28 101 25 38 -2
56 1 52 7 -3 6 -1 14 5 18 6 4 16 -1 21 -10 7 -12 24 -16 71 -16 38 0 57 4 48
9 -17 11 1 23 39 27 101 11 120 11 130 -1 9 -10 18 -11 36 -4 14 5 44 9 67 9
39 1 41 2 23 15 -19 14 -18 15 12 15 18 0 32 -4 32 -9 0 -5 17 -12 37 -16 21
-4 40 -11 43 -16 3 -4 26 -2 50 5 25 7 59 10 75 8 17 -3 143 -5 281 -4 l251 2
12 -63 c37 -199 41 -207 91 -207 l40 0 0 250 0 250 -22 0 c-52 0 -194 34 -210
50 -9 10 -33 21 -52 24 -44 8 -44 14 -15 152 28 134 39 247 25 256 -8 6 -7 11
2 16 10 7 10 15 2 37 -6 16 -8 41 -4 55 3 14 8 59 9 100 2 41 13 113 25 159
l21 84 -32 33 c-38 40 -48 94 -48 280 l-1 112 -57 4 c-71 6 -294 91 -391 149
-119 71 -304 267 -567 600 -27 35 -58 73 -67 84 -157 190 -201 240 -207 243
-5 1 -41 -37 -82 -85 -136 -163 -347 -361 -590 -554 -59 -46 -187 -148 -285
-226 -182 -144 -350 -276 -443 -348 -28 -22 -69 -51 -91 -64 l-40 -23 0 118
c0 158 -17 441 -31 521 l-11 65 -139 -7 -138 -7 -4 53 -3 54 -2 -54 -2 -53
-60 4 c-33 2 -60 1 -60 -4 0 -13 -18 -9 -35 9 -14 14 -22 15 -46 6 -22 -9 -29
-8 -29 1 0 7 -20 17 -45 22 l-45 9 -4 107 c-2 60 0 126 4 148 4 22 3 43 -1 46
-5 3 -9 20 -9 39 0 24 -5 35 -17 38 -16 4 -16 5 0 6 17 1 18 10 15 122 -3 116
-2 120 17 114 11 -3 33 -8 49 -12 l29 -6 -58 109 c-32 60 -66 120 -77 133 -22
28 -11 41 35 41 16 0 26 4 22 10 -4 6 11 10 38 10 42 0 45 -2 51 -31 11 -54 7
-89 -9 -89 -8 0 -12 -6 -9 -14 3 -8 1 -17 -5 -21 -23 -14 -11 -40 19 -42 22
-2 36 6 56 30 23 27 26 38 21 82 -7 70 2 145 19 145 7 0 26 -11 42 -25 36 -30
37 -30 69 -5 34 27 38 25 41 -11 1 -17 7 -39 12 -49 6 -10 10 -31 10 -46 0
-22 -2 -25 -15 -14 -13 11 -15 8 -15 -14 0 -35 -13 -33 -27 4 -9 25 -9 31 5
39 15 9 14 12 -7 35 -31 33 -37 33 -61 -6 -14 -24 -16 -35 -8 -45 8 -10 7 -12
-5 -8 -28 11 -29 -15 0 -61 79 -127 74 -113 52 -155 l-19 -38 23 -3 c45 -6
332 28 355 42 22 14 23 20 19 71 -3 32 -16 78 -31 108 -23 44 -25 55 -14 68
11 14 10 15 -9 9 -15 -5 -38 1 -70 18 -58 31 -70 32 -78 6 -3 -11 -15 -20 -26
-20 -16 0 -19 7 -19 43 0 23 7 82 15 130 9 49 13 107 10 130 -18 134 -18 177
-1 183 11 4 16 18 16 43 0 37 -2 38 -55 56 -53 18 -59 18 -157 2 -57 -9 -141
-22 -188 -28 -47 -6 -86 -12 -88 -13 -1 -2 29 -13 68 -26 l70 -23 0 -66 c0
-43 -5 -74 -15 -88 -9 -12 -27 -68 -41 -124 -26 -104 -67 -193 -88 -186 -13 4
-27 77 -14 77 5 0 6 5 3 10 -3 6 -13 10 -22 10 -12 0 -14 -9 -8 -48 l6 -49
-43 2 c-24 1 -53 5 -65 9 -18 6 -23 3 -23 -9 0 -9 -5 -13 -10 -10 -6 4 -17 2
-24 -4 -7 -6 -52 -12 -99 -13 -76 -3 -87 -5 -87 -21 0 -13 -6 -18 -22 -15 -17
2 -24 11 -26 33 -5 50 -10 59 -27 45 -12 -10 -16 -9 -21 4 -6 17 -5 26 19 89
7 20 16 35 19 31 12 -11 -4 122 -18 153 -17 37 -18 73 -3 73 7 0 8 14 4 39 -6
36 -4 40 17 43 32 4 37 43 6 59 -12 7 -27 17 -33 23 -14 15 -17 57 -4 72 11
13 -4 54 -19 54 -10 0 -33 -39 -41 -68 -6 -22 -10 -19 -49 38 -43 65 -53 100
-28 100 8 0 16 5 18 12 3 7 23 -2 53 -25 26 -20 51 -37 55 -37 12 0 70 69 71
83 0 7 4 3 9 -8 16 -37 10 -95 -15 -147 -14 -28 -24 -53 -22 -54 4 -5 311 37
317 42 7 8 -64 71 -90 79 -14 5 -38 9 -55 9 -24 1 -31 6 -33 26 -2 14 -18 37
-35 52 -18 15 -26 27 -18 28 10 0 11 3 2 14 -7 9 -9 29 -5 55 8 50 -11 57 -21
9 -4 -18 -16 -48 -27 -66 -19 -31 -23 -33 -71 -30 -28 2 -52 8 -54 15 -3 9 6
10 33 6 29 -5 40 -2 51 13 8 10 17 17 21 14 11 -8 14 58 3 77 -8 15 -10 13 -8
-11 1 -18 -4 -31 -12 -34 -10 -3 -12 0 -8 12 5 12 0 16 -22 16 -25 0 -28 3
-23 23 5 22 5 22 -16 3 -12 -11 -22 -21 -22 -22 0 -2 12 -10 28 -18 l27 -15
-34 -1 c-25 0 -32 4 -28 14 7 17 -10 33 -38 38 -48 8 -46 56 5 123 l40 52 61
-1 c74 -2 92 -19 104 -98 l8 -53 8 65 c21 161 17 149 52 152 26 2 32 8 34 28
2 21 -8 32 -68 69 l-70 44 -122 -17 c-67 -9 -150 -16 -184 -16 -35 0 -63 -4
-63 -9 0 -6 27 -27 60 -47 60 -37 60 -38 57 -78 -2 -23 -7 -40 -13 -39 -46 12
-224 86 -329 138 -71 35 -143 69 -159 75 -45 17 -202 111 -296 179 l-85 61
-540 0 c-535 0 -540 0 -575 -22z m1618 -430 c8 -8 12 -46 12 -105 0 -68 3 -93
13 -93 10 1 249 89 311 115 17 7 18 5 11 -21 -4 -16 -9 -80 -10 -141 0 -62 -4
-116 -8 -119 -4 -4 9 -22 28 -41 40 -39 89 -102 84 -107 -10 -10 -224 -25
-227 -17 -2 6 -9 8 -15 5 -7 -2 -18 10 -25 28 -25 61 -51 103 -64 103 -18 0
-19 -95 -1 -102 18 -7 16 -30 -2 -41 -20 -11 -9 -42 14 -42 16 0 16 -15 -10
-215 -15 -119 -30 -229 -34 -245 -8 -36 -3 -37 29 -5 15 15 31 22 41 19 15 -6
94 -116 128 -179 35 -64 53 -77 97 -70 38 6 40 8 40 43 0 51 10 80 27 84 12 3
12 6 -1 23 -12 15 -18 17 -24 8 -6 -10 -14 -9 -34 1 -23 12 -28 12 -45 -6 -20
-19 -20 -19 -33 13 -11 25 -11 34 -2 37 7 2 12 10 12 18 0 19 13 18 40 -6 29
-26 48 -25 76 1 29 27 40 19 48 -35 6 -41 -4 -96 -29 -157 -5 -14 0 -15 42 -8
26 4 55 8 63 9 9 1 6 5 -8 11 -13 5 -20 13 -17 19 10 16 33 11 39 -8 6 -18 11
-18 102 -5 53 8 98 12 101 9 4 -4 41 -399 43 -455 0 -11 6 -9 23 7 21 20 23
20 23 2 0 -10 -5 -16 -11 -13 -5 3 -2 -3 9 -13 13 -14 20 -15 23 -6 3 6 16 12
29 12 21 0 24 -4 24 -40 0 -22 -4 -40 -9 -40 -5 0 -12 -11 -15 -24 -3 -13 -17
-31 -30 -39 -21 -14 -23 -20 -15 -59 5 -24 9 -85 9 -135 -1 -67 2 -93 11 -93
7 0 9 3 6 6 -3 4 -1 16 5 28 7 11 17 48 23 81 11 59 11 61 -18 104 -25 36 -27
43 -11 36 10 -5 33 -8 49 -7 25 1 34 -6 56 -42 25 -40 27 -55 33 -197 9 -207
34 -640 41 -711 l6 -57 -56 31 c-30 16 -60 39 -66 50 -15 29 -24 294 -11 340
13 49 2 58 -71 58 l-60 0 7 90 c4 57 3 90 -3 90 -6 0 -64 -34 -129 -75 -66
-41 -123 -75 -128 -75 -5 1 -33 40 -63 88 -30 48 -68 108 -84 134 -27 42 -28
50 -19 92 11 53 6 60 -10 15 -10 -28 -12 -29 -26 -15 -14 14 -14 17 3 36 10
11 21 20 25 20 4 0 45 25 91 56 82 54 83 55 43 49 -37 -6 -219 -9 -236 -5 -5
2 -13 3 -18 4 -6 0 -15 8 -21 16 -9 12 -9 11 -4 -5 18 -52 18 -51 6 -35 -10
13 -12 13 -21 0 -6 -10 -10 -11 -10 -2 0 6 -5 12 -11 12 -7 0 -17 7 -23 15 -7
9 -31 16 -64 17 -30 1 -56 6 -59 11 -3 5 -7 32 -9 61 -18 270 -35 509 -39 545
-4 35 -2 42 10 37 28 -10 15 16 -27 58 -50 49 -88 56 -88 16 0 -25 0 -25 -79
-22 -86 4 -83 2 -101 77 -7 29 -7 29 -9 4 0 -14 -12 -35 -25 -46 -22 -20 -25
-20 -84 -5 -34 9 -63 14 -65 12 -2 -3 -2 -36 1 -73 4 -67 5 -68 31 -63 14 3
47 8 72 12 l46 6 6 -74 c13 -149 31 -578 25 -584 -4 -3 -26 -8 -50 -11 -24 -3
-48 -9 -54 -14 -6 -5 -28 -7 -50 -5 -25 2 -45 -2 -56 -12 -11 -9 -18 -11 -18
-4 0 9 -25 10 -89 5 l-90 -6 -4 34 -4 34 -1 -36 -2 -36 -107 3 c-60 2 -142 6
-183 9 -41 2 -77 5 -80 5 -3 0 -6 46 -8 103 -4 194 -22 546 -28 562 -6 14 1
15 46 9 31 -4 51 -3 49 2 -45 110 -50 115 -91 93 -28 -15 -68 23 -69 65 l-1
31 -8 -32 c-10 -45 -32 -63 -79 -63 -55 0 -91 15 -91 39 0 31 -72 129 -110
149 l-34 19 -4 139 c-2 76 -5 141 -7 143 -13 12 -61 -44 -79 -92 l-21 -56 -1
102 c0 72 -5 113 -17 141 -11 24 -17 65 -17 112 l0 73 48 6 c89 12 106 16 91
26 -16 10 82 12 117 3 11 -3 29 -21 39 -40 10 -19 24 -33 31 -30 13 5 25 -37
27 -91 0 -28 5 -33 41 -42 29 -7 54 -7 86 1 55 13 56 14 64 63 4 25 3 35 -2
26 -6 -9 -12 -10 -16 -2 -4 6 -32 9 -70 6 -61 -4 -64 -3 -70 20 -4 14 -13 25
-20 25 -41 0 -58 92 -21 112 8 5 13 13 10 19 -4 5 -1 9 4 9 6 0 10 3 10 8 -5
27 3 33 35 27 19 -4 43 -2 56 5 18 10 25 8 44 -9 12 -12 26 -21 31 -21 17 0
34 -36 35 -72 0 -21 5 -38 10 -38 6 0 10 8 10 18 0 13 6 10 24 -13 34 -42 38
-25 34 139 -2 74 1 131 5 127 5 -5 11 -64 13 -132 7 -174 4 -166 67 -174 66
-8 224 15 382 57 135 35 176 39 183 19 3 -8 0 -11 -7 -7 -7 5 -11 -6 -11 -36
0 -37 7 -51 46 -96 25 -28 51 -52 58 -52 20 0 61 51 89 111 15 31 27 60 27 65
0 5 7 21 14 36 9 16 11 30 5 33 -5 4 -9 -1 -9 -9 0 -18 -16 -21 -25 -6 -4 6
-12 7 -22 1 -9 -4 -24 -6 -34 -4 -15 4 -17 11 -13 32 12 49 21 55 28 19 5 -30
10 -35 30 -31 13 3 28 15 34 26 10 22 10 22 20 -3 l11 -25 0 26 c1 20 10 29
46 45 l46 19 3 88 c3 65 0 92 -10 102 -8 7 -14 16 -14 19 0 10 15 7 28 -6z
m-2808 -46 c30 -24 35 -124 7 -130 -31 -6 -66 7 -78 29 -13 26 -4 83 17 104
20 19 27 19 54 -3z m2580 -97 c6 -8 21 -13 32 -12 25 3 47 -28 32 -43 -12 -12
-26 -13 -95 -4 -42 5 -47 4 -52 -16 -3 -13 0 -28 8 -36 7 -8 15 -19 17 -25 3
-9 9 -9 26 0 29 16 28 0 -3 -22 -22 -16 -26 -16 -59 -1 -31 15 -34 20 -31 53
2 24 12 42 29 56 14 12 26 28 26 37 0 15 15 24 46 27 6 0 17 -6 24 -14z m630
-35 c0 -5 -4 -10 -10 -10 -5 0 -10 5 -10 10 0 6 5 10 10 10 6 0 10 -4 10 -10z
m-2550 -170 c0 -5 -9 -10 -21 -10 -11 0 -17 5 -14 10 3 6 13 10 21 10 8 0 14
-4 14 -10z m495 1 c3 -5 0 -94 -7 -198 -7 -103 -12 -234 -10 -290 3 -103 -6
-143 -32 -143 -8 0 -24 -17 -37 -37 l-23 -38 -6 35 c-3 19 -1 38 3 41 12 8 1
38 -23 68 l-20 24 -30 -32 c-34 -35 -38 -49 -13 -47 22 1 27 -23 12 -60 l-11
-29 -25 55 c-15 31 -28 81 -31 115 l-4 59 36 -27 c26 -20 48 -28 81 -29 52 -1
75 14 75 48 0 24 -15 33 -22 13 -2 -6 -27 -14 -56 -17 -48 -4 -54 -2 -82 28
-29 31 -37 63 -32 139 1 26 18 42 36 35 18 -6 45 21 43 44 -1 18 -7 22 -39 22
-31 0 -38 4 -38 20 0 23 17 25 55 8 21 -9 32 -8 61 5 56 27 82 23 92 -15 5
-18 9 -34 8 -35 -1 -1 -14 1 -31 5 l-30 6 25 7 c22 6 21 7 -11 8 -30 1 -38 -3
-42 -21 -8 -30 9 -47 41 -42 15 3 35 6 45 7 9 1 17 6 18 12 0 5 2 63 4 128 4
111 3 117 -15 117 -11 0 -20 5 -20 10 0 13 47 13 55 1z m502 -147 c-3 -3 -12
-4 -19 -1 -8 3 -5 6 6 6 11 1 17 -2 13 -5z m-4 -31 c-7 -2 -19 -2 -25 0 -7 3
-2 5 12 5 14 0 19 -2 13 -5z m1317 -3 c0 -5 -4 -10 -9 -10 -6 0 -13 5 -16 10
-3 6 1 10 9 10 9 0 16 -4 16 -10z m-2035 -60 c-3 -5 -10 -10 -16 -10 -5 0 -9
5 -9 10 0 6 7 10 16 10 8 0 12 -4 9 -10z m-843 -37 c16 -14 23 -15 58 -3 28 9
44 10 51 3 7 -7 0 -12 -22 -17 l-32 -6 7 -50 c6 -47 5 -50 -19 -56 -36 -9 -20
-24 26 -24 43 0 43 -1 30 34 -9 23 -8 25 32 31 23 4 45 12 49 18 4 6 10 -1 13
-16 5 -20 2 -34 -11 -49 -14 -15 -16 -22 -6 -25 6 -3 12 -9 12 -14 0 -6 -4 -7
-10 -4 -5 3 -10 -1 -10 -9 0 -9 6 -16 13 -16 6 0 -2 -13 -19 -29 -21 -18 -46
-30 -78 -34 -85 -12 -128 29 -142 137 l-6 43 43 -1 c40 -1 44 1 47 26 4 30
-18 40 -55 26 -18 -6 -23 -4 -23 10 0 17 18 42 29 42 2 0 13 -7 23 -17z m4108
-76 c30 1 49 -5 57 -16 18 -24 16 -51 -4 -51 -14 0 -15 2 -4 9 19 12 0 20 -26
10 -13 -5 -23 -17 -23 -28 0 -26 32 -45 49 -28 8 8 15 7 28 -5 14 -14 14 -21
3 -47 -15 -37 -23 -39 -37 -8 -9 20 -17 23 -48 19 -21 -3 -40 0 -44 6 -4 6
-11 5 -19 -4 -10 -11 -8 -15 13 -20 14 -3 36 -3 49 0 14 3 28 2 31 -4 4 -6
-21 -10 -68 -10 -83 0 -104 12 -93 55 6 24 9 25 56 19 l49 -6 -1 31 c-1 17 -6
31 -12 32 -6 0 -21 2 -33 5 -24 4 -32 -11 -10 -19 6 -3 2 -6 -10 -6 -27 -1
-27 -1 -6 44 14 30 21 35 38 29 11 -4 40 -7 65 -7z m-980 -11 c14 -8 38 -12
57 -9 18 3 33 2 33 -3 0 -5 3 -20 7 -33 4 -17 3 -22 -6 -17 -18 12 -51 -4 -51
-24 0 -13 10 -22 33 -28 26 -7 33 -14 35 -39 4 -41 -34 -120 -61 -129 -22 -7
-56 -7 -89 -1 -36 6 -66 48 -73 98 -9 65 3 79 66 79 45 0 49 2 49 24 0 22 -6
26 -46 32 l-45 6 27 29 c32 33 31 33 64 15z m-47 -73 c-7 -2 -21 -2 -30 0 -10
3 -4 5 12 5 17 0 24 -2 18 -5z m144 -9 c-3 -3 -12 -4 -19 -1 -8 3 -5 6 6 6 11
1 17 -2 13 -5z m893 -125 c46 24 51 14 14 -35 -21 -27 -33 -34 -57 -32 -19 2
-32 9 -35 20 -2 9 -15 24 -28 33 -39 25 -17 36 26 14 l40 -21 40 21z m-12 14
c-10 -2 -26 -2 -35 0 -10 3 -2 5 17 5 19 0 27 -2 18 -5z m-4045 -61 l28 -29
-47 -36 c-58 -46 -69 -46 -59 -4 8 39 12 64 14 95 1 18 4 21 19 13 9 -5 30
-22 45 -39z m129 -24 c3 -24 4 -45 2 -47 -2 -2 -16 6 -32 18 -17 12 -35 21
-40 21 -6 0 -14 5 -18 11 -4 7 -1 10 7 7 8 -3 25 3 38 13 34 27 38 24 43 -23z
m-122 -99 c0 -27 -17 -32 -24 -6 -11 40 -8 51 9 37 8 -7 15 -21 15 -31z m84
-2 c-18 -37 -34 -40 -34 -8 0 16 40 54 48 46 2 -1 -5 -19 -14 -38z m2971 33
c-3 -5 -14 -10 -23 -10 -15 0 -15 2 -2 10 20 13 33 13 25 0z m812 -32 c-3 -7
-5 -2 -5 12 0 14 2 19 5 13 2 -7 2 -19 0 -25z m-352 -38 c20 -23 76 -25 68 -3
-3 7 -1 13 5 13 17 0 23 -30 7 -36 -8 -4 -12 -10 -9 -15 3 -5 -1 -31 -10 -57
-8 -26 -20 -74 -26 -107 -7 -33 -15 -64 -18 -69 -3 -5 -15 11 -28 35 -20 38
-23 59 -24 152 0 59 4 107 8 107 5 0 17 -9 27 -20z m-3633 -68 c-7 -2 -12 -10
-12 -17 0 -7 -6 -15 -14 -18 -11 -5 -11 0 2 23 9 16 21 26 26 22 6 -3 5 -7 -2
-10z m235 2 c-3 -3 -12 -4 -19 -1 -8 3 -5 6 6 6 11 1 17 -2 13 -5z m4053 -34
c8 -5 11 -10 5 -10 -5 0 -17 5 -25 10 -8 5 -10 10 -5 10 6 0 17 -5 25 -10z
m-316 -15 c-4 -8 -14 -15 -23 -15 -14 1 -13 3 3 15 25 19 27 19 20 0z m396
-45 c0 -5 -4 -10 -9 -10 -6 0 -13 5 -16 10 -3 6 1 10 9 10 9 0 16 -4 16 -10z
m-700 -228 c0 -13 -12 -22 -22 -16 -10 6 -1 24 13 24 5 0 9 -4 9 -8z m116
-102 c8 0 14 -4 14 -9 0 -5 -9 -7 -20 -4 -11 3 -20 13 -19 22 0 10 2 11 6 4 2
-7 11 -13 19 -13z m-48 -25 c-3 -3 -9 2 -12 12 -6 14 -5 15 5 6 7 -7 10 -15 7
-18z m-73 -13 c-3 -3 -11 0 -18 7 -9 10 -8 11 6 5 10 -3 15 -9 12 -12z m-3095
-182 c0 -5 -8 -11 -17 -11 -10 -1 -7 -4 8 -8 23 -5 25 -9 18 -28 -12 -32 -49
-31 -49 1 0 14 -4 28 -10 31 -20 12 -9 25 20 25 17 0 30 -4 30 -10z m2063 -57
c-7 -2 -19 -2 -25 0 -7 3 -2 5 12 5 14 0 19 -2 13 -5z m287 -3 c0 -5 -4 -10
-10 -10 -5 0 -10 5 -10 10 0 6 5 10 10 10 6 0 10 -4 10 -10z m-2230 -29 c-6
-12 -15 -21 -20 -21 -4 0 -16 -3 -26 -7 -10 -3 -2 8 16 25 36 35 48 36 30 3z
m3303 -116 c-7 -21 -13 -19 -13 6 0 11 4 18 10 14 5 -3 7 -12 3 -20z m50 -25
c-7 -28 -13 -25 -13 6 0 14 4 23 9 20 5 -3 7 -15 4 -26z m-23 -4 c0 -2 -7 -9
-15 -16 -13 -11 -14 -10 -9 4 5 14 24 23 24 12z m2390 -1087 c0 -6 -4 -7 -10
-4 -5 3 -10 11 -10 16 0 6 5 7 10 4 6 -3 10 -11 10 -16z m-245 -18 c-15 -15
-65 -25 -65 -13 0 13 17 20 50 21 15 1 20 -3 15 -8z m105 1 c0 -5 -9 -17 -20
-27 -16 -14 -20 -15 -20 -4 0 16 19 39 32 39 4 0 8 -4 8 -8z m246 -3 c4 -8 9
-8 17 0 15 15 27 14 27 -4 0 -8 5 -15 10 -15 13 0 13 -57 -1 -65 -15 -10 -22
1 -21 35 1 29 0 29 -44 23 -40 -5 -44 -4 -44 16 0 16 6 21 24 21 14 0 28 -5
32 -11z m-102 -44 c6 -6 23 -10 39 -10 16 1 27 -4 27 -12 0 -7 -7 -13 -15 -13
-12 0 -65 -45 -65 -54 0 -9 54 2 58 12 4 14 32 16 32 2 0 -5 -16 -20 -35 -32
-44 -29 -44 -42 0 -34 31 6 35 4 35 -14 0 -11 -4 -20 -10 -20 -5 0 -10 4 -10
10 0 5 -7 7 -15 4 -8 -4 -12 -10 -9 -15 7 -12 -34 -5 -47 8 -5 5 -11 32 -13
58 -1 27 -8 51 -14 53 -18 6 -3 22 20 22 l21 0 -21 23 c-17 18 -19 26 -10 35
10 10 14 10 17 0 2 -7 9 -17 15 -23z m256 -18 c0 -7 -10 -13 -24 -12 -28 0
-49 15 -22 15 14 0 17 6 13 25 -4 26 -4 26 14 6 11 -11 19 -26 19 -34z m183 0
c-5 -39 -3 -45 17 -50 12 -3 24 -15 27 -26 6 -25 23 -28 23 -5 0 10 6 14 14
11 16 -6 43 19 32 30 -4 4 -15 2 -24 -4 -21 -12 -51 4 -45 24 3 7 -3 9 -16 6
-22 -6 -24 -1 -15 35 7 25 24 30 24 7 0 -9 6 -12 15 -9 9 4 15 0 15 -10 0 -18
15 -21 25 -6 9 15 35 -8 35 -31 0 -10 5 -21 10 -24 28 -17 -1 -75 -37 -75 -10
-1 -29 -7 -43 -15 -28 -16 -41 -19 -39 -7 1 4 0 16 -1 27 -1 16 -3 15 -12 -8
-13 -35 1 -53 47 -61 51 -10 43 -26 -12 -27 -47 0 -47 -1 -25 -16 25 -18 29
-33 7 -33 -8 0 -15 6 -15 13 0 7 -21 24 -47 37 -50 26 -112 86 -113 108 0 7
-12 17 -26 22 -41 16 -17 31 45 28 42 -2 57 -7 54 -15 -3 -7 0 -13 7 -13 27 0
54 48 39 71 -7 11 -9 11 -9 -3 0 -10 -7 -18 -15 -18 -8 0 -15 5 -15 11 0 8 -5
8 -15 -1 -13 -10 -15 -9 -15 11 0 26 29 50 70 60 36 8 38 4 33 -44z m-113 23
c0 -5 -4 -10 -10 -10 -5 0 -10 5 -10 10 0 6 5 10 10 10 6 0 10 -4 10 -10z
m435 -21 c5 -5 17 -9 27 -9 22 0 24 -28 2 -37 -8 -3 -20 -1 -27 6 -6 6 -19 11
-28 11 -10 0 -19 10 -21 25 -5 22 -3 25 16 19 11 -3 25 -10 31 -15z m-1327 -9
c10 0 10 -5 2 -20 -6 -11 -8 -25 -5 -30 3 -5 -1 -40 -9 -77 -8 -37 -17 -88
-21 -113 -4 -33 -10 -46 -23 -47 -9 -1 -60 -7 -112 -12 -149 -15 -234 7 -260
69 -9 23 -16 28 -25 20 -15 -12 -28 13 -20 39 3 10 -4 20 -21 28 -25 12 -25
11 -11 -5 11 -11 13 -22 7 -32 -7 -12 -12 -11 -29 4 -12 11 -21 17 -21 13 0
-3 -3 -13 -7 -23 -4 -11 -3 -15 4 -11 6 4 14 0 17 -9 8 -21 3 -26 -18 -18 -22
8 -23 148 -2 170 34 34 76 -5 76 -72 0 -16 2 -17 10 -4 7 11 10 7 10 -19 0
-27 3 -31 14 -22 10 8 11 22 6 51 -4 23 -10 43 -13 46 -3 4 2 15 12 25 15 16
24 17 75 9 43 -7 65 -6 85 3 14 7 43 12 64 10 28 -2 37 2 37 13 0 9 6 14 13
11 6 -2 11 -11 9 -21 -2 -9 2 -16 8 -16 6 0 9 4 6 9 -8 12 43 33 65 26 11 -4
19 -2 19 5 0 8 8 10 23 6 12 -3 28 -6 35 -6z m359 -5 c-2 -5 -13 -11 -25 -13
-23 -4 -31 -35 -12 -47 6 -3 10 -1 10 4 0 14 37 14 45 1 3 -5 15 -10 26 -10
10 0 19 -5 19 -11 0 -7 11 -9 30 -5 22 4 30 2 30 -9 0 -7 9 -20 20 -28 11 -8
23 -28 26 -44 5 -26 3 -31 -12 -30 -11 1 -23 -8 -29 -20 -14 -32 -39 -30 -33
2 6 27 -9 33 -31 13 -11 -11 -13 -10 -8 5 4 10 3 16 -2 12 -5 -3 -11 1 -14 7
-2 7 -8 9 -13 5 -4 -4 -3 -17 4 -27 7 -11 10 -20 8 -20 -2 0 -13 -3 -23 -6
-15 -5 -15 -4 -3 5 11 8 11 11 2 11 -7 0 -15 -7 -18 -15 -7 -18 -64 -15 -64 3
0 8 -8 16 -19 19 -40 10 -73 146 -33 138 9 -2 20 -4 25 -4 4 -1 7 -8 7 -16 0
-25 17 -17 24 11 7 28 -7 54 -30 54 -8 0 -14 5 -14 10 0 6 10 8 24 4 13 -3 27
-1 30 4 8 13 57 10 53 -3z m56 -5 c-3 -11 -9 -20 -14 -20 -14 0 -11 28 4 33 6
3 13 6 14 6 0 1 -1 -8 -4 -19z m837 5 c0 -8 -4 -15 -10 -15 -5 0 -10 7 -10 15
0 8 5 15 10 15 6 0 10 -7 10 -15z m145 -5 c3 -5 1 -10 -4 -10 -6 0 -11 5 -11
10 0 6 2 10 4 10 3 0 8 -4 11 -10z m75 0 c0 -5 -4 -10 -10 -10 -5 0 -10 5 -10
10 0 6 5 10 10 10 6 0 10 -4 10 -10z m-2594 -47 c-10 -10 -19 5 -10 18 6 11 8
11 12 0 2 -7 1 -15 -2 -18z m1571 5 c-3 -8 -6 -5 -6 6 -1 11 2 17 5 13 3 -3 4
-12 1 -19z m836 2 c26 -31 20 -42 -8 -16 -14 13 -25 26 -25 30 0 12 16 6 33
-14z m-2203 -11 c-14 -4 -41 -7 -60 -7 -26 1 -28 2 -10 5 14 3 29 8 33 12 4 5
20 6 35 3 l27 -6 -25 -7z m1620 11 c0 -5 -2 -10 -4 -10 -3 0 -8 5 -11 10 -3 6
-1 10 4 10 6 0 11 -4 11 -10z m-8735 -26 c54 -13 91 -12 88 4 -2 7 7 12 22 12
23 0 25 -3 24 -47 -1 -27 -3 -40 -6 -30 -5 20 -23 23 -24 5 0 -10 -2 -10 -6 0
-7 19 -33 14 -33 -6 0 -16 -15 -20 -102 -30 -118 -13 -292 -24 -265 -16 24 7
22 34 -3 34 -44 0 -16 27 53 50 39 13 75 27 79 30 11 8 130 4 173 -6z m9499
-25 c4 -20 1 -35 -8 -45 -22 -21 -39 -18 -26 5 5 11 10 34 10 51 0 38 15 32
24 -11z m-744 10 c0 -14 -17 -10 -23 5 -4 10 -1 13 9 9 7 -3 14 -9 14 -14z
m610 11 c0 -5 -4 -10 -10 -10 -5 0 -10 5 -10 10 0 6 5 10 10 10 6 0 10 -4 10
-10z m-550 -9 c0 -5 9 -11 20 -14 11 -3 20 -12 20 -21 0 -20 -14 -21 -30 -1
-9 11 -16 13 -24 5 -5 -5 -14 -10 -18 -10 -12 0 -10 24 4 38 14 14 28 16 28 3z
m604 -4 c25 5 42 -10 31 -27 -4 -7 -13 -7 -26 0 -12 7 -19 7 -19 1 0 -6 9 -15
21 -22 25 -13 15 -26 -21 -29 -47 -4 -50 -2 -43 33 6 35 25 65 30 50 2 -6 14
-8 27 -6z m-9762 -42 c2 -19 0 -35 -4 -35 -4 0 -6 -10 -4 -22 3 -13 5 -29 5
-37 1 -10 9 -12 31 -7 26 5 30 3 30 -17 0 -12 -4 -29 -9 -36 -8 -12 -12 -10
-22 12 -22 48 -30 29 -26 -57 2 -47 0 -83 -4 -80 -4 2 -10 0 -14 -6 -3 -5 -1
-10 4 -10 6 0 11 -4 11 -10 0 -5 -7 -10 -15 -10 -11 0 -15 12 -15 48 -1 26 -3
104 -6 175 -5 122 -5 127 14 127 15 0 21 -8 24 -35z m6431 0 c4 -8 2 -17 -3
-20 -6 -4 -10 3 -10 14 0 25 6 27 13 6z m3177 -4 c0 -10 -7 -21 -15 -25 -16
-6 -19 3 -9 28 8 22 24 20 24 -3z m-8130 -21 c0 -5 -4 -10 -10 -10 -5 0 -10 5
-10 10 0 6 5 10 10 10 6 0 10 -4 10 -10z m6228 -7 c36 -24 42 -32 42 -71 0
-28 -3 -32 -19 -27 -11 3 -25 -1 -34 -10 -9 -8 -23 -15 -31 -15 -9 0 -16 -5
-16 -11 0 -8 -5 -8 -15 1 -21 17 -19 30 4 27 21 -2 21 -2 21 38 0 20 -5 25
-26 25 -19 0 -25 -4 -20 -15 3 -10 -1 -15 -13 -15 -29 0 -32 -12 -9 -37 28
-30 16 -29 -30 2 -44 30 -55 31 -47 6 5 -16 -1 -19 -32 -23 -50 -6 -64 10 -70
77 l-4 54 53 3 c172 10 219 8 246 -9z m37 7 c3 -5 1 -10 -4 -10 -6 0 -11 5
-11 10 0 6 2 10 4 10 3 0 8 -4 11 -10z m1355 0 c0 -5 -5 -10 -11 -10 -5 0 -7
5 -4 10 3 6 8 10 11 10 2 0 4 -4 4 -10z m-7487 -38 c-5 -12 3 -13 48 -8 30 3
65 6 78 6 18 0 22 4 18 20 -7 27 10 26 18 -1 6 -19 13 -21 66 -17 44 3 59 1
59 -9 0 -10 -40 -13 -197 -11 -109 1 -177 3 -150 5 43 4 47 6 47 31 0 20 3 23
9 13 5 -8 7 -21 4 -29z m7650 3 c22 -19 47 -35 54 -35 7 0 13 -4 13 -10 0 -12
-2 -12 -34 0 -20 7 -24 6 -19 -5 10 -27 -5 -16 -27 20 -18 29 -25 33 -36 24
-11 -9 -14 -7 -14 8 0 18 8 33 18 33 2 0 22 -16 45 -35z m405 10 c28 -12 33
-18 22 -25 -12 -8 -12 -10 3 -16 27 -10 20 -24 -13 -24 -23 0 -31 5 -36 25 -4
16 -13 25 -25 25 -19 0 -25 11 -12 23 9 10 20 9 61 -8z m-9221 -17 c-3 -8 -6
-5 -6 6 -1 11 2 17 5 13 3 -3 4 -12 1 -19z m1023 12 c0 -5 -5 -10 -11 -10 -5
0 -7 5 -4 10 3 6 8 10 11 10 2 0 4 -4 4 -10z m97 4 c-3 -3 -12 -4 -19 -1 -8 3
-5 6 6 6 11 1 17 -2 13 -5z m7570 0 c-3 -3 -12 -4 -19 -1 -8 3 -5 6 6 6 11 1
17 -2 13 -5z m-142 -14 c-3 -5 -10 -10 -16 -10 -5 0 -9 5 -9 10 0 6 7 10 16
10 8 0 12 -4 9 -10z m-80 -30 c3 -5 1 -10 -4 -10 -6 0 -11 5 -11 10 0 6 2 10
4 10 3 0 8 -4 11 -10z m543 -7 c-5 -25 -28 -28 -28 -4 0 12 6 21 16 21 9 0 14
-7 12 -17z m-91 -39 c-9 -9 -28 6 -21 18 4 6 10 6 17 -1 6 -6 8 -13 4 -17z
m-9517 2 c0 -3 -4 -8 -10 -11 -5 -3 -10 -1 -10 4 0 6 5 11 10 11 6 0 10 -2 10
-4z m95 -25 c3 -5 1 -12 -5 -16 -5 -3 -10 1 -10 9 0 18 6 21 15 7z m6842 -23
c-3 -8 -6 -5 -6 6 -1 11 2 17 5 13 3 -3 4 -12 1 -19z m53 12 c0 -5 -7 -10 -15
-10 -8 0 -15 5 -15 10 0 6 7 10 15 10 8 0 15 -4 15 -10z m-7045 -20 c-10 -11
-23 -20 -29 -20 -6 1 0 10 13 20 30 26 39 26 16 0z m3585 10 c0 -5 -7 -7 -15
-4 -8 4 -15 8 -15 10 0 2 7 4 15 4 8 0 15 -4 15 -10z m195 1 c36 -8 34 -9 -30
-10 -49 0 -65 2 -55 9 18 12 32 12 85 1z m5134 -5 c-12 -10 -99 -16 -99 -7 0
7 22 11 52 11 28 0 49 -2 47 -4z m-7589 -30 c0 -3 -4 -8 -10 -11 -5 -3 -10 -1
-10 4 0 6 5 11 10 11 6 0 10 -2 10 -4z m-83 -44 c1 -15 -4 -18 -23 -14 -31 6
-32 32 -1 32 15 0 23 -6 24 -18z m690 12 c-3 -3 -12 -4 -19 -1 -8 3 -5 6 6 6
11 1 17 -2 13 -5z m7168 -15 c-15 -7 -10 -8 21 -6 30 2 40 -1 37 -10 -7 -18
-62 -16 -97 2 -16 9 -41 13 -55 11 -14 -2 -48 -5 -76 -6 -38 -1 -45 -4 -30
-10 18 -8 17 -9 -7 -9 -15 -1 -29 3 -33 9 -3 5 -36 8 -74 7 -51 -1 -67 1 -64
11 4 9 53 12 202 11 128 0 189 -4 176 -10z m-5555 -9 c12 -8 11 -10 -7 -10
-13 0 -23 5 -23 10 0 13 11 13 30 0z m130 -6 c0 -2 -9 -4 -21 -4 -11 0 -18 4
-14 10 5 8 35 3 35 -6z m2310 6 c0 -5 -5 -10 -11 -10 -5 0 -7 5 -4 10 3 6 8
10 11 10 2 0 4 -4 4 -10z m-2263 -6 c-3 -3 -12 -4 -19 -1 -8 3 -5 6 6 6 11 1
17 -2 13 -5z m5493 -4 c0 -5 -9 -10 -20 -10 -11 0 -20 5 -20 10 0 6 9 10 20
10 11 0 20 -4 20 -10z m-8953 -6 c-3 -3 -12 -4 -19 -1 -8 3 -5 6 6 6 11 1 17
-2 13 -5z m8483 -22 c0 -4 -9 -8 -20 -8 -11 0 -20 4 -20 8 0 4 9 8 20 8 11 0
20 -4 20 -8z m-8538 -30 c-8 -2 -8 -11 -1 -29 7 -19 6 -32 -7 -50 -8 -14 -17
-23 -19 -21 -2 2 -1 29 2 60 5 46 9 55 21 50 10 -3 11 -7 4 -10z m9218 3 c25
-4 56 -12 70 -18 14 -5 42 -11 64 -13 21 -1 43 -7 49 -13 6 -6 27 -12 47 -12
l35 -1 -40 -9 c-22 -5 -65 -6 -95 -3 -46 5 -60 2 -82 -15 -25 -20 -33 -20
-249 -14 -123 4 -263 8 -311 8 -49 0 -88 4 -88 9 0 4 -8 5 -17 1 -10 -4 -58
-9 -108 -10 -85 -4 -88 -3 -64 12 14 8 36 30 48 49 l23 33 147 3 c250 5 524 2
571 -7z m297 -71 c-3 -3 -12 -4 -19 -1 -8 3 -5 6 6 6 11 1 17 -2 13 -5z m79
-32 c1 -7 0 -8 -3 -2 -2 5 -15 7 -28 4 -13 -3 -32 -1 -42 4 -14 8 -8 10 26 9
27 -1 45 -7 47 -15z m-9586 -18 c0 -8 -4 -12 -10 -9 -5 3 -10 13 -10 21 0 8 5
12 10 9 6 -3 10 -13 10 -21z m8710 -244 c23 -14 8 -20 -36 -13 -36 6 -37 7
-14 14 35 10 33 10 50 -1z m-337 -61 c-9 -9 -53 -1 -53 10 0 4 14 6 31 3 17
-2 27 -8 22 -13z m-516 -1 c3 6 21 12 40 12 27 0 34 -3 29 -15 -3 -8 -1 -15 4
-15 6 0 10 5 10 12 0 30 12 -6 16 -47 l4 -46 -40 26 c-22 14 -43 25 -47 25
-14 1 -53 38 -53 50 0 9 4 9 17 -1 13 -11 17 -11 20 -1z m-117 -24 c0 -12 -5
-14 -17 -9 -10 4 -28 7 -40 6 -13 0 -23 4 -23 9 0 6 18 10 40 10 30 0 40 -4
40 -16z m0 -79 l0 -45 -54 0 c-50 0 -54 2 -60 26 -8 32 -2 39 44 52 65 19 70
17 70 -33z m-215 5 c3 -5 2 -10 -4 -10 -5 0 -13 5 -16 10 -3 6 -2 10 4 10 5 0
13 -4 16 -10z m372 -36 c-1 -1 -19 -4 -39 -8 -37 -7 -38 -6 -38 24 l0 31 39
-23 c22 -12 39 -23 38 -24z"/>
<path d="M4386 4033 c-3 -4 -34 -7 -69 -7 -59 -1 -62 -2 -65 -26 -2 -21 3 -27
32 -36 35 -11 66 0 66 25 0 6 7 11 15 11 8 0 15 -6 15 -14 0 -19 38 -27 60
-13 24 14 32 54 13 61 -20 8 -58 7 -67 -1z"/>
<path d="M4445 3920 c-3 -5 1 -10 9 -10 9 0 16 5 16 10 0 6 -4 10 -9 10 -6 0
-13 -4 -16 -10z"/>
<path d="M4340 3900 c0 -5 16 -10 35 -10 19 0 35 5 35 10 0 6 -16 10 -35 10
-19 0 -35 -4 -35 -10z"/>
<path d="M5400 3851 c0 -10 -3 -33 -6 -50 l-6 -31 116 0 c76 0 115 4 111 10
-9 15 -171 90 -194 90 -14 0 -21 -6 -21 -19z"/>
<path d="M5280 3791 c8 -5 26 -12 40 -16 22 -7 23 -6 11 9 -7 9 -25 16 -40 16
-19 -1 -22 -3 -11 -9z"/>
<path d="M4932 3760 c-12 -21 -25 -30 -42 -30 -42 0 -224 30 -229 38 -3 4 -33
8 -66 10 l-60 3 32 -23 c18 -13 33 -29 33 -35 0 -7 8 -13 18 -13 9 0 24 -6 33
-13 15 -11 15 -19 -7 -92 -16 -52 -25 -111 -27 -170 -3 -74 -8 -101 -31 -149
-30 -64 -27 -84 7 -45 48 55 50 55 115 -11 61 -60 65 -67 34 -52 -9 5 -30 5
-47 1 l-30 -7 28 -1 c19 -1 31 -9 39 -26 6 -14 15 -25 19 -25 4 0 21 -12 38
-26 27 -23 31 -33 33 -82 2 -55 2 -56 5 -11 4 52 0 50 145 65 l67 7 3 80 c3
68 0 82 -14 91 -12 7 -18 23 -18 48 0 21 -4 38 -9 38 -19 0 -20 58 -3 155 17
93 20 100 40 97 30 -4 28 12 -7 48 -16 17 -32 47 -36 68 -7 37 -31 92 -41 92
-3 0 -13 -13 -22 -30z m-89 -239 c21 -5 43 -13 49 -19 13 -13 2 -33 -15 -27
-20 8 -35 -8 -38 -39 -4 -26 0 -31 30 -38 26 -7 37 -5 52 8 15 14 19 14 20 3
4 -43 -18 -98 -37 -95 -8 1 -22 13 -31 27 -24 35 -23 35 -33 20 -12 -20 -41
-6 -33 16 7 17 6 17 -11 1 -9 -10 -22 -18 -27 -18 -5 0 -9 -7 -9 -15 0 -11 12
-15 50 -15 28 0 50 -4 50 -8 0 -10 -82 -8 -97 1 -6 4 -16 0 -23 -8 -6 -7 -17
-11 -25 -9 -18 7 -59 110 -51 130 6 15 9 15 29 -4 23 -21 124 -42 112 -22 -3
5 -1 18 4 29 14 26 -5 41 -58 44 -46 2 -51 8 -18 22 12 6 21 17 19 24 -2 10 5
12 25 7 15 -4 45 -11 66 -15z m-28 -281 c-3 -5 -15 -10 -25 -10 -10 0 -22 5
-25 10 -4 6 7 10 25 10 18 0 29 -4 25 -10z m118 -43 c24 -58 22 -63 -14 -33
-17 14 -40 26 -52 26 -20 0 -20 0 3 25 32 34 42 32 63 -18z m-95 -80 c-12 -39
-28 -50 -28 -19 0 18 29 66 36 60 2 -2 -2 -21 -8 -41z"/>
<path d="M5310 3753 c0 -5 5 -15 10 -23 8 -12 10 -11 10 8 0 12 -4 22 -10 22
-5 0 -10 -3 -10 -7z"/>
<path d="M5587 3723 c-11 -10 -8 -53 3 -53 6 0 10 9 10 20 0 11 5 20 11 20 7
0 9 -9 6 -21 -3 -13 -1 -19 6 -16 7 2 13 16 15 30 3 23 -1 27 -21 27 -13 0
-27 -3 -30 -7z"/>
<path d="M5250 3670 c0 -5 5 -10 10 -10 6 0 10 5 10 10 0 6 -4 10 -10 10 -5 0
-10 -4 -10 -10z"/>
<path d="M4280 3630 c0 -5 5 -10 10 -10 6 0 10 5 10 10 0 6 -4 10 -10 10 -5 0
-10 -4 -10 -10z"/>
<path d="M5230 3630 c0 -5 4 -10 9 -10 5 0 18 -3 28 -6 16 -5 16 -4 -1 10 -23
18 -36 20 -36 6z"/>
<path d="M4310 3620 c0 -5 5 -10 10 -10 6 0 10 5 10 10 0 6 -4 10 -10 10 -5 0
-10 -4 -10 -10z"/>
<path d="M5070 3591 c0 -11 25 -21 53 -21 21 1 21 1 -3 15 -29 16 -50 19 -50
6z"/>
<path d="M5291 3484 c0 -11 3 -14 6 -6 3 7 2 16 -1 19 -3 4 -6 -2 -5 -13z"/>
<path d="M5282 3415 c0 -16 2 -22 5 -12 2 9 2 23 0 30 -3 6 -5 -1 -5 -18z"/>
<path d="M5272 3340 c0 -14 2 -19 5 -12 2 6 2 18 0 25 -3 6 -5 1 -5 -13z"/>
<path d="M6228 3083 c-23 -6 -26 -73 -3 -73 11 0 15 11 15 36 0 21 4 33 10 29
6 -3 10 -19 10 -36 0 -19 5 -29 15 -29 9 0 15 9 15 24 0 52 -13 62 -62 49z"/>
<path d="M5137 3043 c-13 -12 -8 -73 6 -73 7 0 12 13 12 32 0 17 5 33 11 35
16 5 26 -38 12 -54 -6 -8 -7 -13 0 -13 18 0 30 25 25 53 -4 21 -11 27 -32 27
-15 0 -31 -3 -34 -7z"/>
<path d="M5892 2985 c0 -16 2 -22 5 -12 2 9 2 23 0 30 -3 6 -5 -1 -5 -18z"/>
<path d="M5810 2911 c0 -6 5 -13 10 -16 6 -3 10 1 10 9 0 9 -4 16 -10 16 -5 0
-10 -4 -10 -9z"/>
<path d="M5850 2900 c0 -5 5 -10 10 -10 6 0 10 5 10 10 0 6 -4 10 -10 10 -5 0
-10 -4 -10 -10z"/>
<path d="M4833 2860 c0 -25 2 -35 4 -22 2 12 2 32 0 45 -2 12 -4 2 -4 -23z"/>
<path d="M4730 2875 c0 -8 5 -15 10 -15 6 0 10 7 10 15 0 8 -4 15 -10 15 -5 0
-10 -7 -10 -15z"/>
<path d="M4776 2881 c-4 -7 -5 -15 -2 -18 9 -9 19 4 14 18 -4 11 -6 11 -12 0z"/>
<path d="M6376 2629 c2 -4 -1 -9 -8 -11 -7 -3 -9 -12 -5 -22 7 -18 8 -18 27
-1 25 23 26 44 1 42 -11 0 -18 -4 -15 -8z"/>
<path d="M6430 2602 c0 -15 -46 -35 -88 -38 -49 -3 -61 -9 -45 -25 7 -7 14 -5
23 6 7 8 18 15 24 15 6 0 3 -7 -6 -14 -16 -12 -16 -14 7 -34 29 -25 47 -29 39
-8 -3 8 4 16 18 20 13 3 33 21 46 41 27 42 27 45 2 45 -11 0 -20 -3 -20 -8z
m5 -41 c-3 -6 -11 -11 -17 -11 -6 0 -6 6 2 15 14 17 26 13 15 -4z"/>
<path d="M5931 2544 c0 -11 3 -14 6 -6 3 7 2 16 -1 19 -3 4 -6 -2 -5 -13z"/>
<path d="M5933 2482 c0 -12 5 -22 9 -22 11 0 10 12 -2 30 -7 12 -9 10 -7 -8z"/>
<path d="M5750 2470 c-9 -16 -8 -20 5 -20 8 0 15 9 15 20 0 11 -2 20 -5 20 -2
0 -9 -9 -15 -20z"/>
<path d="M3670 3645 c-16 -19 -6 -45 18 -45 10 0 27 -9 37 -20 10 -11 27 -20
37 -20 11 0 22 9 25 20 6 22 33 28 34 8 0 -7 5 -3 11 10 9 18 7 26 -7 42 -14
16 -31 20 -80 20 -43 0 -66 -5 -75 -15z m137 -17 c1 -14 -3 -18 -13 -14 -9 3
-36 6 -60 6 -32 0 -44 4 -44 14 0 11 14 15 58 14 50 -1 58 -3 59 -20z"/>
<path d="M2955 3565 c-30 -20 -121 -24 -117 -6 3 12 0 12 -12 1 -21 -17 -21
-17 13 -34 17 -9 50 -14 80 -13 47 2 51 4 57 30 7 35 4 38 -21 22z"/>
<path d="M5945 3460 c3 -5 15 -10 25 -10 10 0 22 5 25 10 4 6 -7 10 -25 10
-18 0 -29 -4 -25 -10z"/>
<path d="M5929 3433 c-17 -3 -29 -12 -32 -24 -4 -14 -1 -19 7 -16 6 3 23 -1
36 -8 20 -11 29 -10 57 4 18 9 33 19 33 24 0 9 -46 28 -63 26 -7 -1 -24 -4
-38 -6z"/>
<path d="M9490 1030 c0 -5 5 -10 10 -10 6 0 10 5 10 10 0 6 -4 10 -10 10 -5 0
-10 -4 -10 -10z"/>
<path d="M9510 970 c0 -5 6 -10 14 -10 8 0 18 5 21 10 3 6 -3 10 -14 10 -12 0
-21 -4 -21 -10z"/>
<path d="M8438 1022 c-5 -18 7 -32 28 -32 8 0 4 17 -9 35 -13 17 -14 17 -19
-3z"/>
<path d="M8925 910 c-3 -5 -2 -10 4 -10 5 0 13 5 16 10 3 6 2 10 -4 10 -5 0
-13 -4 -16 -10z"/>
<path d="M320 929 c0 -5 5 -7 10 -4 6 3 10 8 10 11 0 2 -4 4 -10 4 -5 0 -10
-5 -10 -11z"/>
<path d="M232 721 c0 -17 1 -31 3 -31 7 0 12 39 5 49 -4 7 -7 -1 -8 -18z"/>
<path d="M8620 4767 c-25 -17 -56 -38 -68 -44 -220 -126 -363 -193 -537 -253
-60 -21 -103 -41 -95 -44 8 -3 53 -14 100 -25 219 -50 473 -72 790 -67 l205 3
244 62 c135 34 272 70 305 81 34 10 121 38 194 61 73 23 130 45 125 48 -4 4
-26 13 -48 20 -41 14 -163 70 -319 147 l-90 44 -380 0 -381 0 -45 -33z m987
-123 c-3 -3 -12 -4 -19 -1 -8 3 -5 6 6 6 11 1 17 -2 13 -5z"/>
<path d="M2618 4563 c7 -3 16 -2 19 1 4 3 -2 6 -13 5 -11 0 -14 -3 -6 -6z"/>
<path d="M2095 4514 c-84 -19 -106 -29 -140 -64 -43 -44 -67 -117 -54 -164 8
-28 45 -76 59 -76 3 0 16 17 27 38 21 37 21 37 2 61 -29 35 -21 71 21 99 31
21 43 23 113 20 90 -5 113 -20 127 -83 11 -48 1 -74 -51 -130 -23 -25 -40 -45
-38 -45 2 -1 20 -3 39 -6 64 -9 140 76 140 156 0 63 -51 144 -110 175 -29 15
-105 26 -135 19z"/>
<path d="M6330 4435 c0 -11 11 -15 38 -15 l37 1 -25 14 c-33 19 -50 19 -50 0z"/>
<path d="M2024 4354 l-27 -26 21 -17 c24 -18 42 -68 42 -117 0 -30 0 -30 43
-25 38 5 42 9 45 35 6 51 -8 115 -31 140 -35 39 -62 42 -93 10z"/>
<path d="M2405 4361 l-50 -6 -2 -102 -2 -101 45 -4 44 -3 6 47 c5 35 11 48 23
48 13 0 15 -9 13 -54 l-4 -54 33 4 c18 2 33 5 34 6 7 14 34 212 29 219 -6 10
-87 10 -169 0z"/>
<path d="M6143 4273 c-27 -5 -26 -4 -11 -38 13 -30 23 -31 46 -7 35 34 18 56
-35 45z"/>
<path d="M5997 4251 c-3 -13 3 -23 22 -32 39 -19 81 -18 81 3 0 9 3 23 6 32 5
13 -3 16 -49 16 -45 0 -56 -3 -60 -19z"/>
<path d="M7561 4189 c-21 -8 -23 -14 -17 -47 3 -20 6 -50 6 -67 0 -54 29 -6
31 52 3 55 12 66 48 56 26 -7 33 -71 10 -99 -9 -11 -2 -24 13 -24 5 0 6 4 3
10 -3 5 3 17 15 27 27 23 25 49 -5 78 -25 26 -62 31 -104 14z"/>
<path d="M7890 4141 c0 -44 -4 -61 -13 -61 -8 0 -24 -11 -36 -24 -22 -24 -22
-24 -3 -19 11 3 23 11 26 19 7 19 26 18 26 -1 0 -8 4 -15 9 -15 16 0 28 24 30
60 1 19 3 49 4 65 2 24 -2 31 -20 33 -22 3 -23 0 -23 -57z"/>
<path d="M3455 4143 c-28 -7 -35 -15 -39 -50 -4 -28 -1 -31 27 -37 56 -11 111
65 61 85 -14 5 -26 8 -27 8 -1 -1 -11 -3 -22 -6z"/>
<path d="M8124 4136 c-6 -17 2 -36 17 -36 5 0 9 5 9 11 0 5 -4 7 -10 4 -5 -3
-10 -2 -10 4 0 5 5 11 12 13 9 3 9 6 0 12 -7 4 -15 1 -18 -8z"/>
<path d="M8452 4108 c-5 -7 -13 -23 -16 -35 -6 -17 -3 -23 8 -23 9 0 16 8 16
19 0 28 21 37 37 16 12 -18 13 -18 13 2 0 30 -39 44 -58 21z"/>
<path d="M8351 4084 c-11 -15 -18 -31 -15 -36 4 -6 14 2 24 17 16 25 18 25 34
9 23 -22 29 -13 10 14 -20 28 -28 28 -53 -4z"/>
<path d="M8256 4078 c-17 -20 -20 -20 -31 -5 -22 30 -38 20 -19 -12 18 -30 41
-31 58 -3 8 13 11 13 21 -2 17 -23 29 -3 15 24 -14 25 -21 25 -44 -2z"/>
<path d="M3284 4079 c-3 -6 -1 -16 5 -22 8 -8 11 -5 11 11 0 24 -5 28 -16 11z"/>
<path d="M7960 4066 c0 -32 12 -33 34 -3 9 12 14 16 11 10 -4 -8 1 -13 14 -13
12 0 21 -4 21 -10 0 -16 27 -11 34 6 9 24 3 27 -59 32 -54 4 -55 4 -55 -22z"/>
<path d="M8101 4058 c1 -18 2 -19 6 -5 2 9 8 15 12 13 4 -3 13 -1 21 5 11 6 8
9 -12 9 -23 0 -28 -4 -27 -22z"/>
<path d="M7703 4053 c-7 -2 -13 -9 -13 -14 0 -4 6 -6 14 -3 8 3 17 1 21 -5 3
-6 16 -11 28 -10 12 0 17 3 10 5 -7 3 -9 12 -6 20 5 14 -27 19 -54 7z"/>
<path d="M2125 3970 c-3 -6 -3 -19 0 -30 5 -14 2 -20 -9 -20 -9 0 -25 -9 -36
-20 -22 -22 -25 -19 -11 9 7 13 5 20 -10 29 -11 7 -19 8 -19 2 0 -5 6 -10 13
-10 8 0 8 -3 -2 -9 -12 -8 -12 -15 -1 -43 16 -42 45 -68 76 -68 22 0 24 3 18
27 -4 15 -13 34 -21 41 -7 7 -13 19 -13 25 0 7 4 6 10 -3 8 -13 10 -12 10 3 0
9 5 17 10 17 6 0 10 -4 10 -8 0 -18 63 -81 90 -90 22 -8 36 -6 61 6 32 16 78
81 79 110 0 20 -49 14 -73 -9 -64 -60 -111 -59 -141 5 -19 40 -32 51 -41 36z"/>
<path d="M3185 3918 c6 -45 14 -53 57 -54 29 -1 47 4 55 15 18 24 16 33 -7 26
-13 -4 -23 0 -32 14 -9 14 -23 21 -45 21 -27 0 -31 -3 -28 -22z"/>
<path d="M8075 3930 c-3 -5 -12 -7 -19 -4 -8 3 -17 1 -21 -5 -12 -21 24 -22
44 -2 12 12 17 21 12 21 -6 0 -12 -4 -16 -10z"/>
<path d="M8121 3931 c-11 -7 -9 -11 8 -20 21 -12 27 -6 13 16 -5 7 -13 9 -21
4z"/>
<path d="M8155 3931 c-3 -5 -1 -12 5 -16 5 -3 10 1 10 9 0 18 -6 21 -15 7z"/>
<path d="M8210 3926 c0 -9 5 -16 10 -16 6 0 10 4 10 9 0 6 -4 13 -10 16 -5 3
-10 -1 -10 -9z"/>
<path d="M8270 3932 c0 -18 19 -24 37 -13 10 6 13 11 6 11 -6 0 -18 3 -27 6
-9 3 -16 1 -16 -4z"/>
<path d="M8355 3930 c-19 -7 -19 -8 -2 -15 12 -5 24 -2 35 9 13 13 14 16 2 15
-8 0 -24 -4 -35 -9z"/>
<path d="M7552 3897 c1 -15 8 -27 16 -27 10 0 10 5 1 23 -17 33 -19 33 -17 4z"/>
<path d="M7930 3910 c-24 -8 -23 -8 8 -9 17 -1 32 4 32 9 0 11 -5 11 -40 0z"/>
<path d="M7680 3900 c-23 -7 -23 -8 -3 -9 12 -1 25 4 28 9 3 6 5 10 3 9 -2 -1
-14 -5 -28 -9z"/>
<path d="M7750 3900 c0 -5 5 -10 11 -10 5 0 7 5 4 10 -3 6 -8 10 -11 10 -2 0
-4 -4 -4 -10z"/>
<path d="M565 3836 c-15 -11 -17 -17 -8 -27 9 -9 7 -16 -8 -32 -10 -11 -17
-22 -15 -24 8 -8 36 10 41 27 3 10 17 25 30 34 23 15 25 15 25 0 0 -13 3 -14
13 -5 18 14 30 2 16 -15 -6 -8 -9 -21 -5 -29 4 -13 10 -14 26 -5 25 13 25 31
1 59 -25 29 -88 38 -116 17z"/>
<path d="M804 3835 c-34 -14 -58 -46 -68 -90 -6 -27 -5 -28 7 -12 8 9 19 17
25 17 13 0 24 29 15 43 -3 7 -3 9 2 5 4 -4 17 -1 28 7 31 22 55 3 63 -51 5
-39 9 -45 28 -42 25 4 25 35 -3 87 -21 41 -56 54 -97 36z"/>
<path d="M380 3830 c20 -13 40 -13 40 0 0 6 -12 10 -27 10 -22 0 -25 -2 -13
-10z"/>
<path d="M3170 3825 c0 -12 13 -15 58 -14 l57 1 -50 14 c-63 17 -65 17 -65 -1z"/>
<path d="M1015 3818 c-77 -42 -69 -139 11 -137 34 1 80 17 52 18 -33 2 -67 24
-79 53 -6 16 -10 30 -8 31 35 20 47 23 63 17 11 -3 22 -15 26 -25 4 -10 16
-19 28 -20 31 -2 28 29 -4 54 -29 23 -59 26 -89 9z"/>
<path d="M1154 3816 c-10 -26 4 -34 50 -29 42 4 44 3 56 -29 7 -18 12 -39 11
-45 -3 -18 14 -16 30 3 10 12 10 22 2 44 -10 28 -10 28 39 34 66 9 56 16 -29
22 -37 2 -87 6 -111 10 -32 4 -44 2 -48 -10z"/>
<path d="M302 3800 c-7 -11 -8 -20 -3 -20 9 0 24 30 18 36 -1 2 -8 -6 -15 -16z"/>
<path d="M6400 3784 c0 -36 1 -36 32 -30 40 8 42 10 34 41 -8 32 -25 33 -19 1
3 -13 0 -26 -5 -30 -12 -7 -26 29 -17 44 3 5 -1 10 -9 10 -12 0 -16 -10 -16
-36z"/>
<path d="M430 3795 c7 -9 15 -13 17 -11 7 7 -7 26 -19 26 -6 0 -6 -6 2 -15z"/>
<path d="M1440 3788 c-33 -23 -70 -88 -50 -88 5 0 10 6 10 13 0 18 55 67 78
69 37 3 51 -3 57 -23 5 -15 9 -18 15 -9 5 8 10 3 14 -14 3 -14 11 -26 16 -26
13 0 13 6 -5 45 -27 56 -81 69 -135 33z"/>
<path d="M8585 3794 c11 -11 14 -25 10 -44 -3 -16 -2 -31 4 -35 7 -3 8 0 5 9
-3 9 -1 16 4 16 14 0 4 52 -11 62 -21 14 -29 8 -12 -8z"/>
<path d="M13 3793 c-7 -2 -13 -13 -13 -24 0 -18 2 -18 24 -4 13 8 31 13 40 9
20 -8 34 -56 18 -62 -24 -8 -11 -23 16 -20 37 4 40 37 7 77 -26 30 -58 38 -92
24z"/>
<path d="M513 3783 c-3 -10 -8 -22 -11 -28 -3 -5 4 -1 16 9 24 20 28 36 12 36
-6 0 -13 -8 -17 -17z"/>
<path d="M7100 3768 c0 -27 3 -30 23 -24 12 3 34 6 50 6 42 0 32 15 -23 32
l-50 16 0 -30z"/>
<path d="M7871 3767 c-16 -20 -38 -88 -37 -117 1 -41 20 -35 28 9 4 22 12 50
19 63 l12 22 9 -24 c6 -16 5 -38 -2 -63 -12 -42 -8 -60 8 -30 20 38 23 105 7
129 -18 27 -28 30 -44 11z"/>
<path d="M7448 3748 c-16 -24 -38 -91 -38 -115 0 -8 19 -11 60 -10 33 1 60 0
60 -4 0 -3 7 -6 15 -6 8 0 15 6 15 14 0 8 -11 13 -29 13 -26 0 -29 3 -35 48
-3 27 -12 57 -19 66 -13 17 -14 17 -29 -6z m22 -84 c0 -24 -5 -34 -15 -34 -15
0 -20 35 -9 64 10 25 24 8 24 -30z"/>
<path d="M3348 3748 c6 -6 18 -8 28 -6 14 3 12 5 -9 10 -19 3 -25 2 -19 -4z"/>
<path d="M6180 3745 c0 -10 10 -15 33 -15 30 1 31 1 13 15 -25 19 -46 19 -46
0z"/>
<path d="M3470 3736 c0 -2 11 -6 25 -8 13 -3 22 -1 19 3 -5 9 -44 13 -44 5z"/>
<path d="M3467 3704 c-4 -4 -7 -14 -7 -21 0 -19 62 -13 68 6 3 10 -2 12 -21 7
-15 -3 -27 -1 -29 5 -2 5 -7 7 -11 3z"/>
<path d="M8926 3678 c-9 -12 -13 -24 -10 -27 3 -3 10 2 15 12 10 17 40 23 52
11 3 -3 1 -18 -4 -32 -8 -22 -8 -23 6 -12 21 17 19 47 -4 60 -28 15 -38 13
-55 -12z"/>
<path d="M7148 3683 c12 -2 30 -2 40 0 9 3 -1 5 -23 4 -22 0 -30 -2 -17 -4z"/>
<path d="M7964 3682 c-6 -4 -16 -17 -23 -29 -9 -19 -9 -23 2 -23 8 0 21 10 30
23 13 19 18 20 36 9 25 -15 28 -5 4 14 -20 15 -33 17 -49 6z"/>
<path d="M8652 3668 c7 -15 15 -23 17 -17 2 6 -4 18 -13 27 -15 15 -15 15 -4
-10z"/>
<path d="M8691 3674 c0 -11 3 -14 6 -6 3 7 2 16 -1 19 -3 4 -6 -2 -5 -13z"/>
<path d="M8749 3677 c6 -8 8 -17 4 -20 -3 -4 -2 -7 4 -7 9 0 23 22 23 36 0 2
-10 4 -21 4 -17 0 -19 -3 -10 -13z"/>
<path d="M8805 3670 c-10 -11 -16 -23 -12 -26 3 -3 10 4 17 15 6 13 21 21 35
21 20 0 25 -5 25 -26 0 -14 4 -23 10 -19 16 10 12 42 -6 49 -28 11 -51 6 -69
-14z"/>
<path d="M8055 3653 c-23 -24 -25 -29 -10 -31 9 -2 24 3 34 12 30 27 57 16 29
-12 -9 -9 -7 -12 10 -12 24 0 47 34 38 56 -10 25 -70 17 -101 -13z"/>
<path d="M8187 3673 c-14 -13 -7 -63 8 -63 8 0 15 7 15 15 0 8 9 15 20 15 11
0 20 -7 20 -15 0 -25 30 -17 40 11 6 14 10 30 10 35 0 10 -103 13 -113 2z"/>
<path d="M7697 3652 c-19 -20 -23 -37 -7 -27 6 3 10 -1 10 -9 0 -21 39 -21 47
0 6 18 -6 45 -23 51 -6 2 -18 -5 -27 -15z"/>
<path d="M7603 3648 c-17 -22 -25 -44 -9 -24 15 18 36 14 36 -7 0 -7 11 -14
25 -15 29 -2 30 1 9 33 -18 27 -46 33 -61 13z"/>
<path d="M7779 3644 c-10 -13 -10 -17 1 -24 18 -11 30 -3 30 21 0 23 -13 25
-31 3z"/>
<path d="M314 3592 c-14 -9 -25 -52 -13 -52 5 0 9 9 9 20 0 10 8 24 18 29 9 6
13 10 7 11 -5 0 -15 -4 -21 -8z"/>
<path d="M6532 3550 c0 -30 3 -68 7 -85 7 -29 7 -28 14 15 5 31 3 58 -7 85
l-15 40 1 -55z"/>
<path d="M7097 3581 c-3 -12 -1 -21 3 -21 15 0 23 21 12 32 -6 6 -11 2 -15
-11z"/>
<path d="M6 3574 c-9 -24 -8 -25 22 -18 20 4 23 3 12 -5 -12 -9 -12 -11 2 -16
21 -8 70 7 76 23 2 8 -10 12 -37 12 -22 0 -43 5 -46 10 -9 15 -22 12 -29 -6z"/>
<path d="M632 3574 c-12 -13 -10 -14 12 -8 20 5 26 2 26 -10 0 -9 5 -16 10
-16 6 0 10 9 10 20 0 11 -4 20 -9 20 -5 0 -15 2 -23 5 -7 2 -19 -2 -26 -11z"/>
<path d="M7244 3569 c-3 -6 -15 -9 -25 -6 -11 3 -17 1 -13 -4 8 -14 30 -11 44
6 7 8 10 15 7 15 -3 0 -9 -5 -13 -11z"/>
<path d="M559 3547 c5 -5 26 -7 47 -5 l39 3 -47 5 c-26 3 -43 1 -39 -3z"/>
<path d="M980 3550 c0 -5 7 -10 16 -10 8 0 12 5 9 10 -3 6 -10 10 -16 10 -5 0
-9 -4 -9 -10z"/>
<path d="M8316 3528 c-14 -18 -23 -34 -21 -36 7 -7 45 19 55 38 18 33 -7 32
-34 -2z"/>
<path d="M783 3538 c2 -8 19 -12 43 -11 58 4 61 20 3 22 -37 1 -50 -2 -46 -11z"/>
<path d="M1117 3536 c-4 -10 -1 -13 9 -9 15 6 19 23 5 23 -5 0 -11 -7 -14 -14z"/>
<path d="M1260 3539 c0 -5 4 -8 9 -4 5 3 12 1 16 -5 9 -15 25 -12 25 5 0 9 -9
15 -25 15 -14 0 -25 -5 -25 -11z"/>
<path d="M1446 3538 c7 -10 43 -9 69 2 15 6 8 9 -27 8 -26 -1 -45 -5 -42 -10z"/>
<path d="M8072 3514 c-9 -16 -12 -16 -28 -4 -15 13 -17 13 -12 0 3 -9 18 -15
39 -15 19 0 40 -4 47 -8 14 -9 32 -1 32 14 0 6 -4 7 -10 4 -5 -3 -20 1 -34 10
-23 15 -25 15 -34 -1z"/>
<path d="M7490 3513 c0 -13 27 -43 40 -43 5 0 12 5 15 11 4 6 0 9 -8 7 -9 -2
-23 6 -31 17 -9 11 -16 15 -16 8z"/>
<path d="M7620 3505 c0 -8 4 -15 10 -15 5 0 7 7 4 15 -4 8 -8 15 -10 15 -2 0
-4 -7 -4 -15z"/>
<path d="M7933 3508 c2 -14 17 -28 30 -28 14 0 7 28 -9 34 -22 8 -24 8 -21 -6z"/>
<path d="M7400 3495 c-7 -9 -8 -15 -2 -15 5 0 12 7 16 15 3 8 4 15 2 15 -2 0
-9 -7 -16 -15z"/>
<path d="M3478 3493 c6 -2 18 -2 25 0 6 3 1 5 -13 5 -14 0 -19 -2 -12 -5z"/>
<path d="M7720 3490 c-13 -8 -13 -10 2 -10 9 0 20 5 23 10 8 13 -5 13 -25 0z"/>
<path d="M8280 3340 c-7 -4 -9 -13 -6 -19 4 -6 12 -9 17 -6 5 3 16 -12 25 -34
19 -47 48 -58 34 -13 -14 46 -20 57 -39 69 -10 6 -24 8 -31 3z"/>
<path d="M8446 3325 c-9 -14 -19 -39 -23 -55 -5 -25 -3 -29 11 -24 9 3 17 14
17 23 2 30 4 36 17 59 17 30 -2 28 -22 -3z"/>
<path d="M9418 3335 c-3 -2 -70 -14 -90 -15 -5 0 -8 -9 -8 -20 0 -25 37 -27
43 -2 3 9 4 1 4 -18 -2 -27 2 -35 18 -38 15 -2 17 -1 6 6 -9 7 -10 12 -2 16 6
4 9 12 6 17 -6 8 50 26 66 21 4 0 9 7 12 17 3 14 -2 18 -23 19 -16 0 -30 -1
-32 -3z"/>
<path d="M7572 3308 c-20 -20 -13 -32 7 -14 22 20 32 10 33 -34 1 -16 5 -27
10 -24 5 3 7 15 5 27 -9 54 -30 70 -55 45z"/>
<path d="M7890 3261 c0 -56 -1 -59 -22 -54 -20 4 -20 3 -6 -6 30 -20 48 -3 48
44 0 24 5 47 10 50 17 10 11 25 -10 25 -18 0 -20 -7 -20 -59z"/>
<path d="M8256 3297 c3 -10 9 -15 12 -12 3 3 0 11 -7 18 -10 9 -11 8 -5 -6z"/>
<path d="M7760 3262 c0 -24 8 -32 26 -25 22 8 17 43 -6 43 -13 0 -20 -7 -20
-18z"/>
<path d="M8628 3259 c-10 -5 -18 -19 -18 -29 0 -24 15 -26 24 -4 5 13 15 15
49 10 37 -6 40 -5 27 8 -21 20 -61 28 -82 15z"/>
<path d="M7280 3230 c0 -11 5 -20 10 -20 6 0 10 9 10 20 0 11 -4 20 -10 20 -5
0 -10 -9 -10 -20z"/>
<path d="M8515 3235 c-19 -15 -19 -15 9 -9 18 4 31 2 36 -6 9 -14 33 -4 27 13
-5 17 -51 18 -72 2z"/>
<path d="M8768 3228 c-16 -16 -18 -23 -8 -26 7 -3 19 3 25 12 15 20 35 21 35
1 0 -8 7 -15 15 -15 20 0 19 36 -1 44 -27 10 -43 7 -66 -16z"/>
<path d="M9027 3232 c-10 -10 -17 -22 -17 -25 0 -12 21 -7 36 8 21 21 34 19
34 -5 0 -11 5 -20 10 -20 14 0 13 33 -2 48 -17 17 -42 15 -61 -6z"/>
<path d="M9466 3241 c-4 -5 3 -7 14 -4 23 6 26 13 6 13 -8 0 -17 -4 -20 -9z"/>
<path d="M7735 3215 c0 -13 3 -21 8 -18 4 2 7 10 7 18 0 8 -3 16 -7 18 -5 3
-8 -5 -8 -18z"/>
<path d="M8870 3221 c0 -10 7 -21 15 -25 11 -4 15 1 15 19 0 16 -6 25 -15 25
-8 0 -15 -9 -15 -19z"/>
<path d="M8940 3214 c0 -33 33 -30 38 4 3 17 -2 22 -17 22 -16 0 -21 -6 -21
-26z"/>
<path d="M9158 3229 c-10 -5 -18 -17 -18 -24 0 -17 16 -20 25 -5 9 14 42 12
48 -2 2 -7 7 -10 11 -6 12 10 -13 48 -32 48 -9 0 -25 -5 -34 -11z"/>
<path d="M9855 3230 c-3 -5 -1 -10 4 -10 6 0 11 5 11 10 0 6 -2 10 -4 10 -3 0
-8 -4 -11 -10z"/>
<path d="M9978 3210 c-12 -11 -18 -19 -12 -20 5 0 15 5 22 12 19 19 37 -4 23
-30 -17 -32 -12 -39 9 -13 25 29 25 47 1 61 -15 7 -25 5 -43 -10z"/>
<path d="M7777 3214 c-8 -8 1 -24 14 -24 5 0 9 7 9 15 0 15 -12 20 -23 9z"/>
<path d="M8041 3204 c-1 -6 -13 -10 -28 -8 l-28 4 28 -11 c31 -12 42 -8 34 13
-3 7 -6 8 -6 2z"/>
<path d="M2446 3152 l-15 -29 57 -16 c31 -9 58 -15 59 -14 1 2 -18 22 -42 46
l-44 43 -15 -30z"/>
<path d="M4023 3153 c-16 -6 -17 -73 -3 -73 6 0 10 6 9 13 -7 55 15 78 26 27
8 -37 25 -30 25 11 0 24 -4 29 -22 28 -13 0 -29 -3 -35 -6z"/>
<path d="M8400 3132 c0 -7 -4 -10 -10 -7 -14 9 -12 -8 3 -28 16 -22 57 -12 57
15 0 15 -5 18 -17 14 -9 -4 -20 -1 -25 6 -6 11 -8 10 -8 0z"/>
<path d="M7332 3119 c-13 -5 -21 -13 -17 -18 7 -12 35 -3 35 11 0 5 5 6 10 3
6 -3 10 -1 10 4 0 13 -7 13 -38 0z"/>
<path d="M8560 3119 c0 -13 -33 -20 -44 -9 -12 12 -36 13 -36 2 0 -5 12 -14
26 -21 20 -9 30 -9 40 0 11 9 20 9 38 -1 24 -12 46 -7 46 10 0 5 -7 7 -15 4
-8 -3 -17 0 -20 8 -6 15 -35 21 -35 7z"/>
<path d="M8630 3126 c0 -3 7 -12 16 -20 17 -17 64 -22 64 -6 0 5 -6 7 -14 4
-7 -3 -20 1 -27 8 -14 13 -39 22 -39 14z"/>
<path d="M9150 3105 c0 -7 6 -16 13 -18 8 -4 3 -14 -15 -31 -34 -31 -36 -59
-4 -75 46 -25 98 27 77 77 -13 31 -71 70 -71 47z m24 -66 c9 14 46 14 46 1 0
-6 -11 -22 -25 -36 -31 -31 -55 -19 -47 22 3 16 7 21 12 14 5 -9 9 -9 14 -1z"/>
<path d="M9382 3100 c0 -14 2 -19 5 -12 2 6 2 18 0 25 -3 6 -5 1 -5 -13z"/>
<path d="M3702 3085 c0 -16 2 -22 5 -12 2 9 2 23 0 30 -3 6 -5 -1 -5 -18z"/>
<path d="M8920 3100 c-23 -5 -23 -7 -6 -13 11 -4 24 -3 30 3 14 14 5 18 -24
10z"/>
<path d="M8985 3094 c9 -7 23 -10 31 -7 24 9 15 20 -17 20 -28 0 -30 -2 -14
-13z"/>
<path d="M9058 3098 c17 -8 26 -8 34 0 9 9 4 12 -22 11 -33 0 -34 -1 -12 -11z"/>
<path d="M8768 3084 c9 -7 28 -10 41 -7 37 9 21 -20 -18 -31 -41 -12 -40 -43
2 -38 22 3 27 -1 27 -17 0 -14 5 -19 15 -15 8 4 15 17 15 30 0 17 7 25 25 30
31 8 27 30 -3 26 -16 -2 -22 2 -22 17 0 17 -6 20 -50 19 -42 -1 -47 -3 -32
-14z"/>
<path d="M9238 3092 c-10 -2 -18 -8 -18 -13 0 -11 11 -11 30 1 18 11 11 18
-12 12z"/>
<path d="M9628 3088 c5 -5 16 -8 23 -6 8 3 3 7 -10 11 -17 4 -21 3 -13 -5z"/>
<path d="M7528 3073 c-10 -2 -18 -11 -18 -19 0 -19 7 -18 32 6 22 20 19 22
-14 13z"/>
<path d="M7609 3060 c-20 -16 -21 -19 -7 -20 9 0 20 5 23 10 3 6 27 10 52 10
55 0 54 5 -3 14 -33 5 -47 2 -65 -14z"/>
<path d="M7817 3074 c-9 -9 19 -34 37 -34 9 0 16 5 16 11 0 5 -5 7 -10 4 -6
-3 -13 1 -16 9 -6 17 -16 20 -27 10z"/>
<path d="M7893 3053 c14 -14 21 -15 36 -6 10 6 28 9 40 6 12 -3 21 -1 21 6 0
7 -22 11 -57 11 -54 0 -56 -1 -40 -17z"/>
<path d="M8030 3050 c0 -5 5 -10 11 -10 5 0 7 5 4 10 -3 6 -8 10 -11 10 -2 0
-4 -4 -4 -10z"/>
<path d="M3712 3000 c0 -19 2 -27 5 -17 2 9 2 25 0 35 -3 9 -5 1 -5 -18z"/>
<path d="M9974 2974 c-18 -14 -18 -14 6 -3 31 14 36 19 24 19 -6 0 -19 -7 -30
-16z"/>
<path d="M7293 2973 c9 -2 23 -2 30 0 6 3 -1 5 -18 5 -16 0 -22 -2 -12 -5z"/>
<path d="M9925 2970 c3 -5 10 -10 16 -10 5 0 9 5 9 10 0 6 -7 10 -16 10 -8 0
-12 -4 -9 -10z"/>
<path d="M7368 2953 c7 -3 16 -2 19 1 4 3 -2 6 -13 5 -11 0 -14 -3 -6 -6z"/>
<path d="M3640 2940 c0 -5 5 -10 10 -10 6 0 10 5 10 10 0 6 -4 10 -10 10 -5 0
-10 -4 -10 -10z"/>
<path d="M3723 2915 c0 -22 2 -30 4 -17 2 12 2 30 0 40 -3 9 -5 -1 -4 -23z"/>
<path d="M3080 2937 c0 -1 -4 -17 -9 -35 -8 -26 -7 -32 5 -32 8 0 12 4 9 10
-7 12 13 52 24 46 9 -6 8 -37 -3 -54 -4 -6 -3 -12 2 -12 9 0 32 52 32 71 0 5
-13 9 -30 9 -16 0 -30 -1 -30 -3z"/>
<path d="M3590 2930 c0 -5 5 -10 10 -10 6 0 10 5 10 10 0 6 -4 10 -10 10 -5 0
-10 -4 -10 -10z"/>
<path d="M10283 2927 c-24 -7 -33 -16 -33 -31 1 -32 24 -56 56 -56 16 0 44 -9
62 -20 l32 -20 0 65 c0 70 3 66 -60 70 -14 1 -40 -3 -57 -8z"/>
<path d="M7240 2896 c0 -20 5 -36 10 -36 6 0 10 14 10 30 0 20 5 30 15 30 10
0 15 -10 15 -31 0 -20 4 -29 13 -26 6 2 12 17 12 33 0 26 -3 29 -37 32 -37 3
-38 3 -38 -32z"/>
<path d="M7365 2920 c3 -5 13 -10 21 -10 8 0 12 5 9 10 -3 6 -13 10 -21 10 -8
0 -12 -4 -9 -10z"/>
<path d="M2718 2865 c-3 -14 -1 -25 3 -25 5 0 9 11 9 25 0 14 -2 25 -4 25 -2
0 -6 -11 -8 -25z"/>
<path d="M7360 2875 c0 -8 9 -15 20 -15 11 0 20 7 20 15 0 8 -9 15 -20 15 -11
0 -20 -7 -20 -15z"/>
<path d="M2660 2871 c0 -6 5 -13 10 -16 6 -3 10 1 10 9 0 9 -4 16 -10 16 -5 0
-10 -4 -10 -9z"/>
<path d="M3732 2830 c0 -19 2 -27 5 -17 2 9 2 25 0 35 -3 9 -5 1 -5 -18z"/>
<path d="M3742 2745 c0 -16 2 -22 5 -12 2 9 2 23 0 30 -3 6 -5 -1 -5 -18z"/>
<path d="M6890 2759 c0 -5 5 -7 10 -4 6 3 10 8 10 11 0 2 -4 4 -10 4 -5 0 -10
-5 -10 -11z"/>
<path d="M3752 2665 c0 -16 2 -22 5 -12 2 9 2 23 0 30 -3 6 -5 -1 -5 -18z"/>
<path d="M3763 2555 c0 -22 2 -30 4 -17 2 12 2 30 0 40 -3 9 -5 -1 -4 -23z"/>
<path d="M10356 2325 c-21 -37 -40 -84 -43 -108 -3 -28 -2 -38 5 -28 8 11 12
10 20 -5 9 -16 13 -17 36 -4 25 13 26 16 26 112 0 54 -1 98 -3 98 -2 0 -20
-29 -41 -65z"/>
<path d="M10346 1691 c-4 -7 -5 -15 -2 -18 9 -9 19 4 14 18 -4 11 -6 11 -12 0z"/>
<path d="M2033 1363 c-16 -3 -22 -13 -25 -44 -3 -38 -3 -39 30 -39 l34 0 -17
26 c-17 27 -13 60 6 48 8 -4 9 -3 5 4 -4 7 -8 11 -9 11 -1 -1 -12 -4 -24 -6z"/>
<path d="M1646 1348 c-3 -7 -4 -26 -3 -43 2 -27 5 -30 32 -28 17 2 53 3 80 2
38 0 47 3 38 12 -6 6 -25 12 -43 14 -17 1 -41 11 -53 22 -36 31 -47 35 -51 21z"/>
<path d="M1065 1290 c4 -6 11 -8 16 -5 14 9 11 15 -7 15 -8 0 -12 -5 -9 -10z"/>
<path d="M1208 1273 c7 -3 16 -2 19 1 4 3 -2 6 -13 5 -11 0 -14 -3 -6 -6z"/>
<path d="M7410 965 c0 -8 7 -15 16 -15 14 0 14 3 4 15 -7 8 -14 15 -16 15 -2
0 -4 -7 -4 -15z"/>
<path d="M7152 920 c0 -14 2 -19 5 -12 2 6 2 18 0 25 -3 6 -5 1 -5 -13z"/>
<path d="M1200 770 c-11 -7 -9 -11 13 -19 38 -15 39 -14 27 9 -12 22 -18 24
-40 10z"/>
<path d="M1435 700 c-3 -5 -1 -10 4 -10 6 0 11 5 11 10 0 6 -2 10 -4 10 -3 0
-8 -4 -11 -10z"/>
<path d="M2552 235 c0 -16 2 -22 5 -12 2 9 2 23 0 30 -3 6 -5 -1 -5 -18z"/>
<path d="M9968 233 c6 -2 18 -2 25 0 6 3 1 5 -13 5 -14 0 -19 -2 -12 -5z"/>
<path d="M9968 213 c7 -3 16 -2 19 1 4 3 -2 6 -13 5 -11 0 -14 -3 -6 -6z"/>
<path d="M10013 213 c9 -2 25 -2 35 0 9 3 1 5 -18 5 -19 0 -27 -2 -17 -5z"/>
<path d="M8490 160 c-9 -6 -10 -10 -3 -10 6 0 15 5 18 10 8 12 4 12 -15 0z"/>
<path d="M10161 136 c12 -10 79 -16 79 -6 0 5 -19 10 -42 10 -23 0 -39 -2 -37
-4z"/>
<path d="M9988 113 c6 -2 18 -2 25 0 6 3 1 5 -13 5 -14 0 -19 -2 -12 -5z"/>
<path d="M8795 90 c-4 -6 -16 -8 -28 -4 -12 3 -19 3 -15 -1 4 -4 22 -9 40 -11
18 -2 36 -10 40 -17 8 -15 68 -11 68 4 0 9 -15 13 -39 10 -7 -2 -20 1 -30 5
-11 6 -5 10 24 14 l40 7 -47 2 c-26 0 -50 -4 -53 -9z"/>
<path d="M8917 74 c-9 -10 2 -24 18 -24 9 0 12 6 9 15 -6 16 -17 19 -27 9z"/>
<path d="M8905 10 c-4 -6 6 -10 22 -10 22 0 25 2 13 10 -19 12 -27 12 -35 0z"/>
</g>
</svg>
